<svg xmlns="http://www.w3.org/2000/svg" xmlns:xlink="http://www.w3.org/1999/xlink" width="500" zoomAndPan="magnify" viewBox="0 0 375 374.999991" height="500" preserveAspectRatio="xMidYMid meet" version="1.0"><defs><g/><clipPath id="ffdc03ecfa"><path d="M 55.839844 123.011719 L 175.058594 123.011719 L 175.058594 242.230469 L 55.839844 242.230469 Z M 55.839844 123.011719 " clip-rule="nonzero"/></clipPath><clipPath id="3572dc7fde"><path d="M 115.449219 123.011719 C 82.527344 123.011719 55.839844 149.699219 55.839844 182.621094 C 55.839844 215.542969 82.527344 242.230469 115.449219 242.230469 C 148.371094 242.230469 175.058594 215.542969 175.058594 182.621094 C 175.058594 149.699219 148.371094 123.011719 115.449219 123.011719 Z M 115.449219 123.011719 " clip-rule="nonzero"/></clipPath><clipPath id="97baf7b687"><path d="M 0.839844 0.0117188 L 120.058594 0.0117188 L 120.058594 119.230469 L 0.839844 119.230469 Z M 0.839844 0.0117188 " clip-rule="nonzero"/></clipPath><clipPath id="f960fc4ba9"><path d="M 60.449219 0.0117188 C 27.527344 0.0117188 0.839844 26.699219 0.839844 59.621094 C 0.839844 92.542969 27.527344 119.230469 60.449219 119.230469 C 93.371094 119.230469 120.058594 92.542969 120.058594 59.621094 C 120.058594 26.699219 93.371094 0.0117188 60.449219 0.0117188 Z M 60.449219 0.0117188 " clip-rule="nonzero"/></clipPath><clipPath id="4e8d73cc38"><rect x="0" width="121" y="0" height="120"/></clipPath><clipPath id="c6198d6c96"><path d="M 55.839844 162.230469 L 144 162.230469 L 144 252 L 55.839844 252 Z M 55.839844 162.230469 " clip-rule="nonzero"/></clipPath><clipPath id="a7f4a56a47"><path d="M 8 0.230469 L 68 0.230469 L 68 27 L 8 27 Z M 8 0.230469 " clip-rule="nonzero"/></clipPath><clipPath id="e73fae07cd"><rect x="0" width="89" y="0" height="90"/></clipPath><clipPath id="57928dc538"><path d="M 149.53125 199 L 330.28125 199 L 330.28125 218.273438 L 149.53125 218.273438 Z M 149.53125 199 " clip-rule="nonzero"/></clipPath><clipPath id="26b2135f46"><rect x="0" width="182" y="0" height="20"/></clipPath><clipPath id="f90c98e2d7"><path d="M 144.128906 136.132812 L 181.859375 136.132812 L 181.859375 173.863281 L 144.128906 173.863281 Z M 144.128906 136.132812 " clip-rule="nonzero"/></clipPath><clipPath id="a67c9f4c6b"><path d="M 162.996094 136.132812 C 152.574219 136.132812 144.128906 144.578125 144.128906 154.996094 C 144.128906 165.417969 152.574219 173.863281 162.996094 173.863281 C 173.414062 173.863281 181.859375 165.417969 181.859375 154.996094 C 181.859375 144.578125 173.414062 136.132812 162.996094 136.132812 Z M 162.996094 136.132812 " clip-rule="nonzero"/></clipPath><clipPath id="78d2759e25"><path d="M 0.128906 0.132812 L 37.859375 0.132812 L 37.859375 37.863281 L 0.128906 37.863281 Z M 0.128906 0.132812 " clip-rule="nonzero"/></clipPath><clipPath id="b8c816cbd8"><path d="M 18.996094 0.132812 C 8.574219 0.132812 0.128906 8.578125 0.128906 18.996094 C 0.128906 29.417969 8.574219 37.863281 18.996094 37.863281 C 29.414062 37.863281 37.859375 29.417969 37.859375 18.996094 C 37.859375 8.578125 29.414062 0.132812 18.996094 0.132812 Z M 18.996094 0.132812 " clip-rule="nonzero"/></clipPath><clipPath id="5ca82d8b73"><rect x="0" width="38" y="0" height="38"/></clipPath></defs><g clip-path="url(#ffdc03ecfa)"><g clip-path="url(#3572dc7fde)"><g transform="matrix(1, 0, 0, 1, 55, 123)"><g clip-path="url(#4e8d73cc38)"><g clip-path="url(#97baf7b687)"><g clip-path="url(#f960fc4ba9)"><path fill="#ede1d8" d="M 0.839844 0.0117188 L 120.058594 0.0117188 L 120.058594 119.230469 L 0.839844 119.230469 Z M 0.839844 0.0117188 " fill-opacity="1" fill-rule="nonzero"/></g></g></g></g></g></g><g clip-path="url(#c6198d6c96)"><g transform="matrix(1, 0, 0, 1, 55, 162)"><g clip-path="url(#e73fae07cd)"><path fill="#e6cdba" d="M 25.652344 19.996094 C 25.179688 19.652344 24.707031 19.300781 24.234375 18.960938 C 24.414062 17.605469 24.632812 16.25 24.882812 14.917969 C 25.464844 14.566406 26.058594 14.21875 26.667969 13.882812 C 26.246094 15.878906 25.910156 17.921875 25.652344 19.996094 Z M 25.652344 19.996094 " fill-opacity="1" fill-rule="nonzero"/><path fill="#e6cdba" d="M 57.605469 35.058594 C 58.484375 35.617188 59.339844 36.199219 60.160156 36.808594 C 59.011719 36.539062 57.84375 36.289062 56.667969 36.054688 Z M 57.605469 35.058594 " fill-opacity="1" fill-rule="nonzero"/><path fill="#e6cdba" d="M 64.9375 27.273438 C 71.355469 39.058594 73.824219 52.90625 72.285156 68.472656 C 71.773438 67.757812 71.261719 67.058594 70.75 66.355469 C 72.449219 53.320312 70.0625 39.011719 64.351562 27.894531 Z M 64.9375 27.273438 " fill-opacity="1" fill-rule="nonzero"/><path fill="#e6cdba" d="M 61.476562 35.976562 C 60.5625 35.28125 59.609375 34.613281 58.625 33.976562 L 59.910156 32.613281 C 60.457031 33.699219 60.980469 34.820312 61.476562 35.976562 Z M 61.476562 35.976562 " fill-opacity="1" fill-rule="nonzero"/><path fill="#e6cdba" d="M 21.554688 17.109375 C 22.09375 16.726562 22.644531 16.347656 23.214844 15.976562 C 23.097656 16.660156 22.992188 17.34375 22.890625 18.035156 C 22.445312 17.726562 22.003906 17.414062 21.554688 17.109375 Z M 21.554688 17.109375 " fill-opacity="1" fill-rule="nonzero"/><path fill="#e6cdba" d="M 67.058594 52.226562 C 67.058594 52.222656 67.058594 52.214844 67.058594 52.210938 C 66.949219 50.84375 66.785156 49.484375 66.570312 48.136719 C 66.570312 48.132812 66.566406 48.128906 66.566406 48.125 C 65.9375 44.175781 64.863281 40.324219 63.339844 36.59375 C 62.617188 34.820312 61.824219 33.105469 60.984375 31.472656 L 63.285156 29.027344 C 68.472656 39.378906 70.746094 52.460938 69.480469 64.605469 C 68.664062 63.503906 67.84375 62.429688 67.023438 61.359375 C 67.167969 59.644531 67.238281 57.945312 67.226562 56.253906 C 67.226562 56.253906 67.230469 56.25 67.230469 56.25 C 67.230469 56.242188 67.226562 56.234375 67.226562 56.230469 C 67.222656 54.886719 67.164062 53.550781 67.058594 52.226562 Z M 67.058594 52.226562 " fill-opacity="1" fill-rule="nonzero"/><path fill="#e6cdba" d="M 22.074219 29.191406 C 18.007812 28.40625 13.945312 28.164062 9.953125 28.480469 C 10.683594 27.492188 11.515625 26.445312 12.453125 25.367188 C 15.734375 25.214844 19 25.203125 22.179688 25.335938 C 22.113281 26.613281 22.082031 27.898438 22.074219 29.191406 Z M 22.074219 29.191406 " fill-opacity="1" fill-rule="nonzero"/><path fill="#e6cdba" d="M 22.078125 30.679688 C 22.089844 31.640625 22.117188 32.601562 22.160156 33.566406 C 14.433594 33.8125 8.539062 34.488281 6.023438 34.816406 C 6.539062 33.769531 7.453125 32.089844 8.835938 30.054688 C 13.179688 29.582031 17.628906 29.792969 22.078125 30.679688 Z M 22.078125 30.679688 " fill-opacity="1" fill-rule="nonzero"/><g clip-path="url(#a7f4a56a47)"><path fill="#e6cdba" d="M 49.105469 2.625 C 49.089844 3.027344 49.402344 3.367188 49.804688 3.386719 C 56.546875 3.675781 61.953125 5.328125 65.960938 8.292969 C 60.234375 5.753906 49.71875 3.296875 34.761719 8.621094 C 34.527344 8.703125 34.308594 8.796875 34.078125 8.878906 C 34.050781 8.886719 34.027344 8.898438 34 8.910156 C 33.636719 9.042969 33.273438 9.179688 32.917969 9.316406 C 32.902344 9.324219 32.890625 9.328125 32.878906 9.332031 C 30.953125 10.09375 29.148438 10.925781 27.449219 11.804688 C 27.398438 11.828125 27.347656 11.847656 27.304688 11.878906 C 26.136719 12.488281 25.023438 13.121094 23.957031 13.773438 C 23.882812 13.804688 23.816406 13.84375 23.757812 13.894531 C 22.414062 14.726562 21.152344 15.582031 19.96875 16.460938 C 19.878906 16.503906 19.796875 16.5625 19.726562 16.644531 C 18.769531 17.363281 17.859375 18.089844 17 18.824219 C 16.886719 18.878906 16.785156 18.949219 16.710938 19.058594 C 16.703125 19.066406 16.703125 19.078125 16.699219 19.085938 C 14.777344 20.75 13.105469 22.433594 11.671875 24.050781 C 11.554688 24.128906 11.460938 24.234375 11.402344 24.359375 C 10.773438 25.082031 10.191406 25.789062 9.652344 26.476562 C 13.40625 20.277344 18.929688 15.015625 26.167969 10.773438 C 26.515625 10.570312 26.632812 10.121094 26.429688 9.773438 C 26.222656 9.425781 25.777344 9.308594 25.429688 9.511719 C 18.046875 13.839844 12.398438 19.207031 8.519531 25.527344 C 16.699219 8.246094 38.28125 0.210938 50.566406 0.6875 C 58.324219 0.972656 64.246094 3.460938 67.542969 7.660156 C 63.234375 4.175781 57.316406 2.246094 49.867188 1.925781 C 49.46875 1.914062 49.121094 2.222656 49.105469 2.625 Z M 49.105469 2.625 " fill-opacity="1" fill-rule="nonzero"/></g><path fill="#e6cdba" d="M 6.753906 25.929688 C 8.148438 20.785156 11.089844 14.546875 17.25 9.671875 C 24.039062 4.300781 31.296875 2.191406 36.617188 1.398438 C 25.050781 4.992188 12.371094 13.074219 6.753906 25.929688 Z M 6.753906 25.929688 " fill-opacity="1" fill-rule="nonzero"/><path fill="#e6cdba" d="M 46.804688 29.820312 C 48.25 30.34375 49.65625 30.90625 51.007812 31.511719 L 48.027344 34.675781 C 46.777344 34.519531 45.503906 34.382812 44.222656 34.257812 C 45.164062 32.804688 46.027344 31.328125 46.804688 29.820312 Z M 46.804688 29.820312 " fill-opacity="1" fill-rule="nonzero"/><path fill="#e6cdba" d="M 61.113281 15.664062 C 62.433594 15.902344 63.769531 16.191406 65.101562 16.539062 L 63.414062 18.332031 C 62.667969 17.398438 61.902344 16.507812 61.113281 15.664062 Z M 61.113281 15.664062 " fill-opacity="1" fill-rule="nonzero"/><path fill="#e6cdba" d="M 49.363281 7.039062 C 50.023438 7.003906 50.667969 6.980469 51.300781 6.976562 C 53.304688 7.957031 55.347656 9.148438 57.386719 10.503906 C 56.546875 10.382812 55.699219 10.269531 54.847656 10.167969 C 53.070312 8.921875 51.238281 7.875 49.363281 7.039062 Z M 49.363281 7.039062 " fill-opacity="1" fill-rule="nonzero"/><path fill="#e6cdba" d="M 67.175781 14.335938 L 66.128906 15.449219 C 66.09375 15.417969 66.0625 15.390625 66.027344 15.359375 C 66.007812 15.339844 65.988281 15.320312 65.960938 15.304688 C 64.289062 13.816406 62.582031 12.425781 60.859375 11.152344 C 60.835938 11.132812 60.8125 11.117188 60.785156 11.101562 C 58.738281 9.589844 56.671875 8.25 54.621094 7.085938 C 55.992188 7.195312 57.273438 7.371094 58.472656 7.597656 C 61.410156 9.515625 64.335938 11.785156 67.175781 14.335938 Z M 67.175781 14.335938 " fill-opacity="1" fill-rule="nonzero"/><path fill="#e6cdba" d="M 44.367188 35.738281 C 45.660156 35.867188 46.953125 36.007812 48.214844 36.167969 C 49.226562 36.296875 50.242188 36.4375 51.261719 36.589844 C 55.199219 37.179688 59.035156 37.972656 62.679688 38.941406 C 63.179688 40.308594 63.621094 41.695312 64 43.09375 C 60.429688 41.929688 56.964844 41.011719 53.699219 40.386719 C 51.957031 40.058594 50.097656 39.761719 48.183594 39.515625 C 46.917969 38.226562 45.644531 36.96875 44.367188 35.738281 Z M 44.367188 35.738281 " fill-opacity="1" fill-rule="nonzero"/><path fill="#e6cdba" d="M 62.769531 14.496094 C 61.625 14.257812 60.492188 14.0625 59.375 13.902344 C 58.65625 13.21875 57.921875 12.566406 57.179688 11.949219 C 58.175781 12.09375 59.15625 12.25 60.117188 12.417969 C 61.003906 13.078125 61.890625 13.773438 62.769531 14.496094 Z M 62.769531 14.496094 " fill-opacity="1" fill-rule="nonzero"/><path fill="#e6cdba" d="M 17.382812 20.417969 C 18.996094 21.53125 20.597656 22.6875 22.1875 23.875 C 19.445312 23.765625 16.640625 23.757812 13.820312 23.855469 C 14.882812 22.722656 16.074219 21.566406 17.382812 20.417969 Z M 17.382812 20.417969 " fill-opacity="1" fill-rule="nonzero"/><path fill="#e6cdba" d="M 65.683594 59.613281 C 65.167969 58.949219 64.648438 58.296875 64.128906 57.640625 C 64.675781 57.5 65.21875 57.34375 65.765625 57.179688 C 65.753906 57.988281 65.730469 58.796875 65.683594 59.613281 Z M 65.683594 59.613281 " fill-opacity="1" fill-rule="nonzero"/><path fill="#e6cdba" d="M 58.0625 50.285156 C 60.636719 50.996094 63.171875 51.828125 65.632812 52.765625 C 65.6875 53.507812 65.726562 54.257812 65.75 55.007812 C 64.023438 54.179688 62.152344 53.417969 60.152344 52.746094 C 59.460938 51.914062 58.761719 51.097656 58.0625 50.285156 Z M 58.0625 50.285156 " fill-opacity="1" fill-rule="nonzero"/><path fill="#e6cdba" d="M 49.851562 41.222656 C 51.082031 41.40625 52.28125 41.605469 53.425781 41.824219 C 56.898438 42.484375 60.597656 43.476562 64.421875 44.765625 C 64.601562 45.535156 64.761719 46.304688 64.90625 47.082031 C 62.382812 46.21875 59.789062 45.449219 57.167969 44.804688 C 55.542969 44.402344 53.878906 44.042969 52.210938 43.722656 C 51.429688 42.878906 50.640625 42.042969 49.851562 41.222656 Z M 49.851562 41.222656 " fill-opacity="1" fill-rule="nonzero"/><path fill="#e6cdba" d="M 53.886719 45.550781 C 54.871094 45.761719 55.851562 45.984375 56.816406 46.21875 C 59.65625 46.921875 62.46875 47.765625 65.183594 48.722656 C 65.308594 49.53125 65.410156 50.339844 65.492188 51.15625 C 62.53125 50.058594 59.476562 49.105469 56.378906 48.328125 C 55.554688 47.386719 54.71875 46.46875 53.886719 45.550781 Z M 53.886719 45.550781 " fill-opacity="1" fill-rule="nonzero"/><path fill="#e6cdba" d="M 61.984375 54.96875 C 62.855469 55.308594 63.703125 55.660156 64.511719 56.035156 C 64.054688 56.164062 63.597656 56.277344 63.140625 56.390625 C 62.757812 55.910156 62.367188 55.441406 61.984375 54.96875 Z M 61.984375 54.96875 " fill-opacity="1" fill-rule="nonzero"/><path fill="#e6cdba" d="M 50.074219 51.746094 C 50.824219 51.871094 51.570312 51.996094 52.316406 52.128906 C 53.8125 53.84375 55.300781 55.613281 56.785156 57.417969 C 55.394531 57.527344 54 57.570312 52.601562 57.527344 C 52.042969 55.480469 51.210938 53.570312 50.074219 51.746094 Z M 50.074219 51.746094 " fill-opacity="1" fill-rule="nonzero"/><path fill="#e6cdba" d="M 52.003906 58.976562 C 52.015625 58.980469 52.027344 58.984375 52.039062 58.984375 C 52.050781 58.984375 52.0625 58.980469 52.070312 58.980469 C 52.613281 59.003906 53.160156 59.019531 53.699219 59.019531 C 55.109375 59.019531 56.511719 58.9375 57.914062 58.789062 C 58.59375 59.628906 59.277344 60.484375 59.957031 61.34375 C 51.273438 61.609375 43.714844 60.414062 36.367188 57.621094 L 37.886719 56.007812 C 42.738281 57.796875 47.40625 58.785156 52.003906 58.976562 Z M 52.003906 58.976562 " fill-opacity="1" fill-rule="nonzero"/><path fill="#e6cdba" d="M 43.816406 69.453125 C 40.863281 69.308594 37.90625 68.769531 35.019531 67.863281 C 34.675781 67.113281 34.351562 66.347656 34.023438 65.585938 C 40.429688 67.683594 47.316406 68.746094 54.617188 68.746094 C 57.847656 68.746094 61.164062 68.53125 64.550781 68.117188 C 64.40625 68.808594 64.253906 69.480469 64.09375 70.136719 C 54.722656 73.039062 45.707031 73.8125 37.285156 72.4375 C 36.796875 71.511719 36.324219 70.574219 35.867188 69.625 C 38.464844 70.339844 41.105469 70.785156 43.746094 70.910156 C 43.757812 70.910156 43.769531 70.914062 43.78125 70.914062 C 44.167969 70.914062 44.492188 70.609375 44.511719 70.21875 C 44.53125 69.816406 44.21875 69.472656 43.816406 69.453125 Z M 43.816406 69.453125 " fill-opacity="1" fill-rule="nonzero"/><path fill="#e6cdba" d="M 39.589844 38.71875 C 35.617188 38.472656 31.394531 38.367188 26.980469 38.414062 C 26.863281 37.257812 26.769531 36.101562 26.699219 34.953125 C 29.75 34.929688 32.796875 34.980469 35.761719 35.117188 C 37.046875 36.289062 38.320312 37.488281 39.589844 38.71875 Z M 39.589844 38.71875 " fill-opacity="1" fill-rule="nonzero"/><path fill="#e6cdba" d="M 44.902344 50.957031 C 45.980469 52.550781 46.695312 53.960938 47.167969 55.472656 C 47.265625 55.785156 47.554688 55.984375 47.863281 55.984375 C 47.9375 55.984375 48.011719 55.976562 48.082031 55.953125 C 48.46875 55.832031 48.683594 55.421875 48.5625 55.035156 C 48.15625 53.742188 47.601562 52.523438 46.820312 51.234375 C 47.253906 51.296875 47.683594 51.367188 48.117188 51.433594 C 49.457031 53.332031 50.433594 55.316406 51.070312 57.460938 C 47.132812 57.195312 43.125 56.316406 38.984375 54.839844 L 42.898438 50.683594 C 43.566406 50.769531 44.234375 50.863281 44.902344 50.957031 Z M 44.902344 50.957031 " fill-opacity="1" fill-rule="nonzero"/><path fill="#e6cdba" d="M 34.089844 33.601562 C 33.351562 33.574219 32.621094 33.546875 31.875 33.53125 C 31.984375 32.996094 32.097656 32.46875 32.214844 31.953125 C 32.839844 32.496094 33.464844 33.042969 34.089844 33.601562 Z M 34.089844 33.601562 " fill-opacity="1" fill-rule="nonzero"/><path fill="#e6cdba" d="M 29.453125 52.1875 C 29.925781 52.4375 30.390625 52.679688 30.855469 52.914062 L 29.921875 53.910156 C 29.761719 53.335938 29.601562 52.761719 29.453125 52.1875 Z M 29.453125 52.1875 " fill-opacity="1" fill-rule="nonzero"/><path fill="#e6cdba" d="M 28.757812 49.285156 C 30.476562 49.402344 32.191406 49.53125 33.898438 49.6875 L 31.902344 51.804688 C 30.941406 51.328125 29.964844 50.816406 28.984375 50.273438 C 28.90625 49.945312 28.832031 49.613281 28.757812 49.285156 Z M 28.757812 49.285156 " fill-opacity="1" fill-rule="nonzero"/><path fill="#e6cdba" d="M 50.78125 64.023438 C 44.621094 63.335938 39.128906 62.050781 34.015625 60.117188 L 35.292969 58.761719 C 42.316406 61.515625 49.5 62.84375 57.609375 62.84375 C 58.746094 62.84375 59.902344 62.816406 61.078125 62.761719 C 62.085938 64.054688 63.09375 65.371094 64.101562 66.703125 C 52.914062 68.035156 42.554688 67.0625 33.285156 63.804688 C 33.011719 63.121094 32.738281 62.441406 32.480469 61.75 L 32.933594 61.269531 C 38.320312 63.367188 44.109375 64.75 50.617188 65.472656 C 50.648438 65.476562 50.675781 65.476562 50.699219 65.476562 C 51.066406 65.476562 51.382812 65.203125 51.425781 64.828125 C 51.46875 64.429688 51.179688 64.066406 50.78125 64.023438 Z M 50.78125 64.023438 " fill-opacity="1" fill-rule="nonzero"/><path fill="#e6cdba" d="M 28.261719 46.976562 C 35.421875 46.742188 42.347656 47.167969 48.859375 48.253906 C 49.5 48.953125 50.132812 49.667969 50.765625 50.382812 C 50.070312 50.265625 49.371094 50.152344 48.667969 50.042969 C 48.652344 50.039062 48.636719 50.035156 48.621094 50.035156 C 47.578125 49.871094 46.53125 49.714844 45.476562 49.5625 C 45.457031 49.558594 45.4375 49.558594 45.417969 49.554688 C 39.851562 48.761719 34.160156 48.171875 28.417969 47.796875 C 28.359375 47.523438 28.316406 47.25 28.261719 46.976562 Z M 28.261719 46.976562 " fill-opacity="1" fill-rule="nonzero"/><path fill="#e6cdba" d="M 24.761719 51.757812 C 22.796875 50.527344 20.804688 49.152344 18.800781 47.648438 C 20.480469 47.46875 22.136719 47.320312 23.769531 47.207031 C 24.0625 48.726562 24.394531 50.246094 24.761719 51.757812 Z M 24.761719 51.757812 " fill-opacity="1" fill-rule="nonzero"/><path fill="#e6cdba" d="M 26.003906 56.390625 C 22.167969 54.25 18.367188 51.601562 14.253906 48.214844 C 15.074219 48.101562 15.886719 47.992188 16.699219 47.890625 C 19.585938 50.125 22.46875 52.105469 25.273438 53.792969 C 25.503906 54.664062 25.75 55.527344 26.003906 56.390625 Z M 26.003906 56.390625 " fill-opacity="1" fill-rule="nonzero"/><path fill="#e6cdba" d="M 5.613281 54.644531 C 5.234375 53.054688 4.949219 51.460938 4.757812 49.867188 C 5.261719 49.765625 5.769531 49.664062 6.273438 49.5625 C 6.09375 51.957031 6.460938 54.679688 7.367188 57.675781 C 7.460938 57.992188 7.753906 58.195312 8.066406 58.195312 C 8.136719 58.195312 8.207031 58.1875 8.277344 58.164062 C 8.664062 58.046875 8.882812 57.640625 8.765625 57.253906 C 7.859375 54.257812 7.53125 51.582031 7.773438 49.28125 C 8.117188 49.21875 8.457031 49.152344 8.796875 49.09375 C 8.671875 51.867188 9.183594 55.351562 10.339844 59.488281 C 10.429688 59.8125 10.722656 60.023438 11.042969 60.023438 C 11.105469 60.023438 11.171875 60.015625 11.238281 59.996094 C 11.625 59.886719 11.855469 59.484375 11.746094 59.097656 C 10.761719 55.558594 10.261719 52.542969 10.242188 50.082031 C 10.636719 50.527344 11.039062 50.964844 11.445312 51.398438 C 11.996094 56.234375 13.09375 60.710938 14.71875 64.703125 C 14.832031 64.988281 15.105469 65.160156 15.394531 65.160156 C 15.484375 65.160156 15.578125 65.140625 15.667969 65.105469 C 16.042969 64.953125 16.222656 64.527344 16.070312 64.152344 C 14.710938 60.804688 13.734375 57.101562 13.144531 53.117188 C 13.945312 53.890625 14.765625 54.644531 15.609375 55.363281 C 16.40625 59.113281 17.488281 62.578125 18.832031 65.691406 L 13.789062 71.046875 C 9.839844 66.253906 7.082031 60.742188 5.613281 54.644531 Z M 5.613281 54.644531 " fill-opacity="1" fill-rule="nonzero"/><path fill="#e6cdba" d="M 23.664062 24.980469 C 24.15625 25.355469 24.648438 25.742188 25.140625 26.125 C 25.074219 27.636719 25.058594 29.167969 25.078125 30.707031 C 25.066406 30.789062 25.066406 30.875 25.082031 30.953125 C 25.097656 32.011719 25.128906 33.074219 25.1875 34.140625 C 25.183594 34.171875 25.167969 34.195312 25.167969 34.226562 C 25.167969 34.277344 25.1875 34.324219 25.199219 34.371094 C 25.285156 35.933594 25.414062 37.503906 25.582031 39.078125 C 25.578125 39.105469 25.566406 39.128906 25.566406 39.15625 C 25.566406 39.226562 25.589844 39.289062 25.609375 39.351562 C 25.734375 40.453125 25.878906 41.558594 26.039062 42.664062 C 26.039062 42.691406 26.027344 42.714844 26.027344 42.738281 C 26.03125 42.824219 26.054688 42.902344 26.085938 42.976562 C 26.25 44.070312 26.4375 45.160156 26.640625 46.25 C 26.640625 46.269531 26.632812 46.285156 26.632812 46.300781 C 26.636719 46.40625 26.664062 46.503906 26.703125 46.589844 C 26.832031 47.273438 26.960938 47.953125 27.105469 48.628906 C 27.113281 48.671875 27.117188 48.714844 27.136719 48.753906 C 27.285156 49.449219 27.445312 50.140625 27.613281 50.832031 C 27.621094 50.894531 27.628906 50.953125 27.652344 51.007812 C 27.988281 52.398438 28.347656 53.78125 28.746094 55.15625 L 27.539062 56.4375 C 24.421875 46.015625 23.089844 35.199219 23.664062 24.980469 Z M 23.664062 24.980469 " fill-opacity="1" fill-rule="nonzero"/><path fill="#e6cdba" d="M 10.992188 48.71875 C 11.433594 48.644531 11.875 48.574219 12.316406 48.503906 C 17.148438 52.578125 21.535156 55.636719 26.015625 58.058594 L 24.414062 59.761719 C 19.324219 56.859375 14.820312 53.148438 10.992188 48.71875 Z M 10.992188 48.71875 " fill-opacity="1" fill-rule="nonzero"/><path fill="#e6cdba" d="M 17.457031 56.863281 C 19.335938 58.320312 21.3125 59.652344 23.386719 60.851562 L 19.929688 64.523438 C 18.953125 62.164062 18.125 59.601562 17.457031 56.863281 Z M 17.457031 56.863281 " fill-opacity="1" fill-rule="nonzero"/><path fill="#e6cdba" d="M 29.902344 29.980469 C 30.257812 30.277344 30.613281 30.570312 30.96875 30.871094 C 30.761719 31.726562 30.566406 32.605469 30.390625 33.5 C 29.96875 33.496094 29.539062 33.5 29.113281 33.5 C 29.339844 32.292969 29.605469 31.113281 29.902344 29.980469 Z M 29.902344 29.980469 " fill-opacity="1" fill-rule="nonzero"/><path fill="#e6cdba" d="M 26.574219 27.253906 C 27.273438 27.8125 27.972656 28.378906 28.667969 28.949219 C 28.503906 29.546875 28.347656 30.152344 28.199219 30.769531 C 27.640625 30.589844 27.085938 30.417969 26.53125 30.261719 C 26.523438 29.253906 26.542969 28.25 26.574219 27.253906 Z M 26.574219 27.253906 " fill-opacity="1" fill-rule="nonzero"/><path fill="#e6cdba" d="M 26.609375 33.488281 C 26.582031 32.921875 26.574219 32.355469 26.558594 31.789062 C 27 31.921875 27.4375 32.058594 27.882812 32.203125 C 27.792969 32.628906 27.710938 33.058594 27.628906 33.492188 C 27.289062 33.492188 26.949219 33.488281 26.609375 33.488281 Z M 26.609375 33.488281 " fill-opacity="1" fill-rule="nonzero"/><path fill="#e6cdba" d="M 43.339844 42.433594 C 38.222656 41.917969 32.878906 41.761719 27.414062 41.957031 C 27.316406 41.261719 27.214844 40.566406 27.136719 39.875 C 32.09375 39.824219 36.824219 39.960938 41.199219 40.28125 C 41.917969 40.988281 42.628906 41.710938 43.339844 42.433594 Z M 43.339844 42.433594 " fill-opacity="1" fill-rule="nonzero"/><path fill="#e6cdba" d="M 47.257812 46.527344 C 41.121094 45.628906 34.65625 45.292969 27.992188 45.523438 C 27.863281 44.820312 27.738281 44.117188 27.625 43.410156 C 33.601562 43.203125 39.425781 43.425781 44.953125 44.078125 C 45.726562 44.882812 46.492188 45.707031 47.257812 46.527344 Z M 47.257812 46.527344 " fill-opacity="1" fill-rule="nonzero"/><path fill="#e6cdba" d="M 22.507812 38.503906 C 14.527344 38.761719 8.835938 39.390625 8.777344 39.398438 C 8.375 39.445312 8.085938 39.804688 8.132812 40.207031 C 8.175781 40.578125 8.492188 40.855469 8.859375 40.855469 C 8.886719 40.855469 8.914062 40.851562 8.941406 40.851562 C 9 40.84375 14.691406 40.210938 22.667969 39.960938 C 22.75 40.707031 22.847656 41.453125 22.949219 42.199219 C 21.039062 42.332031 19.097656 42.503906 17.148438 42.71875 C 16.746094 42.765625 16.460938 43.125 16.503906 43.527344 C 16.546875 43.898438 16.863281 44.175781 17.226562 44.175781 C 17.253906 44.175781 17.28125 44.175781 17.308594 44.171875 C 19.273438 43.953125 21.234375 43.78125 23.160156 43.648438 C 23.269531 44.351562 23.382812 45.054688 23.507812 45.761719 C 19.929688 46.015625 16.242188 46.429688 12.480469 47.003906 C 12.464844 47.003906 12.445312 47.007812 12.425781 47.011719 C 10.617188 47.285156 8.789062 47.597656 6.945312 47.945312 C 6.933594 47.949219 6.921875 47.949219 6.914062 47.953125 C 6.148438 48.097656 5.386719 48.25 4.617188 48.40625 C 4.28125 44.386719 4.542969 40.359375 5.414062 36.375 C 7.183594 36.125 13.53125 35.300781 22.234375 35.027344 C 22.304688 36.183594 22.390625 37.34375 22.507812 38.503906 Z M 22.507812 38.503906 " fill-opacity="1" fill-rule="nonzero"/><path fill="#e6cdba" d="M 71.347656 76.734375 C 70.054688 77.796875 68.691406 78.785156 67.273438 79.679688 C 68.054688 77.824219 68.714844 75.84375 69.273438 73.777344 C 69.964844 74.753906 70.660156 75.738281 71.347656 76.734375 Z M 71.347656 76.734375 " fill-opacity="1" fill-rule="nonzero"/><path fill="#e6cdba" d="M 31.371094 62.925781 C 31.59375 63.5 31.8125 64.074219 32.042969 64.640625 C 32.054688 64.664062 32.0625 64.691406 32.074219 64.714844 C 33.296875 67.722656 34.667969 70.628906 36.167969 73.441406 C 36.183594 73.472656 36.195312 73.507812 36.21875 73.539062 C 37.144531 75.273438 38.121094 76.976562 39.148438 78.632812 C 39.164062 78.660156 39.175781 78.683594 39.195312 78.707031 C 40.898438 81.445312 42.730469 84.085938 44.703125 86.597656 C 44.839844 86.773438 44.902344 86.988281 44.882812 87.210938 C 44.863281 87.425781 44.761719 87.617188 44.605469 87.75 C 44.515625 87.820312 44.421875 87.867188 44.3125 87.894531 C 44.03125 87.960938 43.726562 87.851562 43.539062 87.613281 C 38.070312 80.648438 33.589844 72.757812 30.210938 64.15625 Z M 31.371094 62.925781 " fill-opacity="1" fill-rule="nonzero"/><path fill="#e6cdba" d="M 68.171875 72.230469 C 67.378906 75.464844 66.316406 78.476562 64.996094 81.175781 C 64.308594 82.5 62.742188 84.742188 61.488281 85.042969 C 60.75 85.21875 60.402344 84.734375 60.25 84.378906 C 61.007812 83.039062 64.03125 77.351562 65.851562 69.046875 C 66.625 70.097656 67.402344 71.15625 68.171875 72.230469 Z M 68.171875 72.230469 " fill-opacity="1" fill-rule="nonzero"/><path fill="#e6cdba" d="M 54.546875 80.558594 C 54.6875 80.558594 54.828125 80.558594 54.96875 80.558594 C 55.371094 80.554688 55.695312 80.226562 55.695312 79.824219 C 55.691406 79.421875 55.367188 79.097656 54.964844 79.097656 C 54.84375 79.105469 54.683594 79.097656 54.546875 79.097656 C 49.492188 79.097656 44.6875 78.605469 40.242188 77.632812 C 39.515625 76.453125 38.8125 75.257812 38.136719 74.039062 C 40.566406 74.382812 43.039062 74.5625 45.554688 74.5625 C 51.398438 74.5625 57.457031 73.628906 63.664062 71.789062 C 61.878906 78.28125 59.519531 82.699219 58.957031 83.691406 C 57.664062 84.144531 56.332031 84.542969 54.988281 84.867188 C 52.046875 85.574219 49.042969 85.945312 46.042969 85.996094 C 45.988281 85.890625 45.925781 85.789062 45.851562 85.695312 C 44.253906 83.660156 42.753906 81.539062 41.335938 79.351562 C 45.484375 80.152344 49.917969 80.558594 54.546875 80.558594 Z M 54.546875 80.558594 " fill-opacity="1" fill-rule="nonzero"/><path fill="#e6cdba" d="M 73.566406 70.285156 C 75.511719 53.554688 72.960938 38.714844 65.992188 26.152344 L 66.574219 25.53125 C 67.894531 27.789062 69.097656 30.1875 70.140625 32.683594 C 73.253906 40.140625 75.148438 48.65625 75.691406 56.84375 C 75.691406 56.859375 75.695312 56.875 75.695312 56.890625 C 76.050781 62.292969 75.8125 67.542969 74.9375 72.253906 C 74.480469 71.59375 74.023438 70.9375 73.566406 70.285156 Z M 73.566406 70.285156 " fill-opacity="1" fill-rule="nonzero"/><path fill="#e6cdba" d="M 66.085938 66.886719 C 66.058594 66.84375 66.023438 66.8125 65.988281 66.777344 C 54.425781 51.296875 42.511719 38.523438 29.96875 28.136719 C 29.957031 28.125 29.949219 28.117188 29.9375 28.109375 C 27.78125 26.324219 25.609375 24.613281 23.414062 22.96875 C 23.390625 22.953125 23.371094 22.929688 23.34375 22.917969 C 21.75 21.722656 20.144531 20.558594 18.527344 19.4375 C 19.097656 18.964844 19.699219 18.496094 20.3125 18.027344 C 26.074219 21.921875 31.671875 26.257812 37.132812 31.058594 C 37.136719 31.058594 37.136719 31.0625 37.140625 31.0625 C 37.140625 31.066406 37.144531 31.066406 37.144531 31.066406 C 38.691406 32.429688 40.234375 33.820312 41.757812 35.257812 C 41.78125 35.285156 41.808594 35.304688 41.835938 35.332031 C 45.007812 38.320312 48.132812 41.472656 51.21875 44.796875 C 51.222656 44.808594 51.234375 44.816406 51.246094 44.824219 C 52.613281 46.300781 53.976562 47.804688 55.332031 49.347656 C 55.332031 49.351562 55.335938 49.355469 55.339844 49.359375 C 61.964844 56.90625 68.40625 65.265625 74.71875 74.492188 C 74.804688 74.621094 75.570312 75.855469 74.625 76.585938 C 73.832031 77.199219 73.089844 76.582031 72.902344 76.402344 C 70.652344 73.140625 68.390625 69.992188 66.113281 66.941406 C 66.105469 66.921875 66.09375 66.902344 66.085938 66.886719 Z M 66.085938 66.886719 " fill-opacity="1" fill-rule="nonzero"/><path fill="#e6cdba" d="M 82.820312 61.671875 C 82.121094 63.242188 81.335938 64.765625 80.453125 66.226562 C 80.738281 64.410156 80.894531 62.476562 80.929688 60.4375 C 81.566406 60.84375 82.195312 61.253906 82.820312 61.671875 Z M 82.820312 61.671875 " fill-opacity="1" fill-rule="nonzero"/><path fill="#e6cdba" d="M 76.902344 53.859375 C 79.546875 55.257812 82.152344 56.804688 84.660156 58.484375 C 84.683594 58.5 86.164062 59.480469 85.65625 60.398438 C 85.476562 60.730469 85.269531 60.917969 85.027344 60.980469 C 84.675781 61.070312 84.269531 60.878906 84.140625 60.796875 C 81.875 59.25 79.511719 57.800781 77.128906 56.484375 C 77.070312 55.613281 76.992188 54.734375 76.902344 53.859375 Z M 76.902344 53.859375 " fill-opacity="1" fill-rule="nonzero"/><path fill="#e6cdba" d="M 82.769531 47.242188 C 82.785156 47.25 82.796875 47.261719 82.8125 47.269531 C 85.195312 48.746094 86.378906 49.761719 86.402344 49.78125 C 86.449219 49.820312 88.085938 51.117188 87.605469 52.40625 C 87.324219 53.152344 86.707031 53.167969 86.417969 53.128906 C 85.699219 52.703125 81.714844 50.390625 76.042969 47.808594 C 75.765625 46.277344 75.441406 44.75 75.078125 43.242188 C 78.375 44.691406 80.925781 46.101562 82.769531 47.242188 Z M 82.769531 47.242188 " fill-opacity="1" fill-rule="nonzero"/><path fill="#e6cdba" d="M 85.804688 54.460938 C 85.8125 54.464844 85.816406 54.46875 85.820312 54.472656 C 85.835938 54.480469 87.421875 55.320312 87.039062 56.402344 C 86.875 56.867188 86.644531 57.160156 86.355469 57.277344 C 85.972656 57.433594 85.523438 57.277344 85.414062 57.234375 C 82.609375 55.355469 79.671875 53.632812 76.691406 52.097656 C 76.585938 51.246094 76.464844 50.394531 76.328125 49.546875 C 82.003906 52.179688 85.738281 54.425781 85.78125 54.449219 C 85.789062 54.453125 85.796875 54.453125 85.804688 54.460938 Z M 85.804688 54.460938 " fill-opacity="1" fill-rule="nonzero"/><path fill="#e6cdba" d="M 77.226562 58.214844 C 77.980469 58.640625 78.730469 59.078125 79.476562 59.53125 C 79.476562 63.222656 79.074219 66.570312 78.269531 69.476562 C 77.71875 70.222656 77.136719 70.945312 76.535156 71.648438 C 77.230469 67.472656 77.449219 62.910156 77.226562 58.214844 Z M 77.226562 58.214844 " fill-opacity="1" fill-rule="nonzero"/><path fill="#e6cdba" d="M 1.597656 86.128906 L 5.308594 82.183594 C 5.988281 83.351562 7.050781 84.328125 8.503906 85.089844 L 4.738281 89.085938 C 3.921875 89.953125 2.554688 89.992188 1.691406 89.175781 C 1.269531 88.78125 1.03125 88.246094 1.011719 87.671875 C 0.996094 87.09375 1.203125 86.546875 1.597656 86.128906 Z M 1.597656 86.128906 " fill-opacity="1" fill-rule="nonzero"/><path fill="#e6cdba" d="M 10.21875 76.972656 L 11.074219 76.0625 C 11.828125 77.359375 12.867188 78.367188 14.171875 79.066406 L 13.378906 79.90625 C 11.929688 79.324219 10.886719 78.355469 10.21875 76.972656 Z M 10.21875 76.972656 " fill-opacity="1" fill-rule="nonzero"/><path fill="#e6cdba" d="M 12.125 74.945312 L 27.722656 58.375 C 27.726562 58.375 27.726562 58.371094 27.726562 58.371094 L 29.933594 56.027344 C 30.066406 55.953125 30.167969 55.847656 30.230469 55.710938 L 32.59375 53.199219 C 32.597656 53.199219 32.597656 53.199219 32.597656 53.199219 L 35.734375 49.863281 C 37.535156 50.039062 39.328125 50.238281 41.105469 50.457031 L 37.15625 54.652344 L 32.21875 59.898438 L 15.21875 77.957031 C 13.839844 77.320312 12.824219 76.328125 12.125 74.945312 Z M 12.125 74.945312 " fill-opacity="1" fill-rule="nonzero"/><path fill="#e6cdba" d="M 8.191406 79.121094 L 9.160156 78.09375 C 9.902344 79.390625 10.960938 80.375 12.320312 81.035156 L 11.378906 82.035156 C 9.914062 81.347656 8.863281 80.390625 8.191406 79.121094 Z M 8.191406 79.121094 " fill-opacity="1" fill-rule="nonzero"/><path fill="#e6cdba" d="M 6.367188 81.058594 L 7.148438 80.230469 C 7.894531 81.441406 8.960938 82.421875 10.332031 83.144531 L 9.550781 83.976562 C 7.96875 83.230469 6.921875 82.269531 6.367188 81.058594 Z M 6.367188 81.058594 " fill-opacity="1" fill-rule="nonzero"/><path fill="#e6cdba" d="M 87.433594 45.980469 C 86.542969 43.519531 85.441406 41.03125 84.164062 38.554688 C 84.164062 38.550781 84.160156 38.550781 84.160156 38.550781 C 80.925781 32.28125 76.515625 26.074219 71.300781 20.507812 L 72.347656 19.398438 C 77.882812 25.308594 82.535156 31.910156 85.875 38.546875 C 85.875 38.550781 85.875 38.550781 85.878906 38.554688 C 87.035156 40.859375 88.039062 43.167969 88.863281 45.449219 C 89.011719 45.871094 88.808594 46.332031 88.402344 46.480469 L 88.300781 46.511719 C 87.960938 46.589844 87.574219 46.367188 87.433594 45.980469 Z M 87.433594 45.980469 " fill-opacity="1" fill-rule="nonzero"/><path fill="#e6cdba" d="M 30.097656 74.625 C 27.910156 73.550781 25.550781 72.203125 23.703125 71.074219 L 24.554688 70.164062 C 25.808594 70.714844 27.085938 71.226562 28.363281 71.671875 C 28.882812 72.683594 29.457031 73.667969 30.097656 74.625 Z M 30.097656 74.625 " fill-opacity="1" fill-rule="nonzero"/><path fill="#e6cdba" d="M 24.542969 78.894531 C 24.683594 79.023438 24.859375 79.085938 25.035156 79.085938 C 25.234375 79.085938 25.429688 79.007812 25.574219 78.847656 C 25.847656 78.550781 25.824219 78.089844 25.527344 77.816406 C 24.050781 76.472656 22.691406 75 21.464844 73.453125 L 22.457031 72.398438 C 26.042969 77.746094 30.714844 81.871094 36.910156 85.113281 C 30.296875 83.691406 24.042969 80.621094 18.863281 76.214844 L 20.453125 74.527344 C 21.695312 76.074219 23.0625 77.546875 24.542969 78.894531 Z M 24.542969 78.894531 " fill-opacity="1" fill-rule="nonzero"/><path fill="#e6cdba" d="M 27.484375 69.785156 C 26.859375 69.546875 26.242188 69.296875 25.625 69.03125 L 26.734375 67.851562 C 26.960938 68.507812 27.214844 69.152344 27.484375 69.785156 Z M 27.484375 69.785156 " fill-opacity="1" fill-rule="nonzero"/><path fill="#e6cdba" d="M 36.136719 79.445312 C 32.15625 75.738281 29.386719 71.445312 27.878906 66.636719 L 29.113281 65.328125 C 31.097656 70.28125 33.445312 75.003906 36.136719 79.445312 Z M 36.136719 79.445312 " fill-opacity="1" fill-rule="nonzero"/><path fill="#e6cdba" d="M 25.140625 73.621094 C 27.351562 74.894531 29.84375 76.207031 31.878906 77.039062 C 33.773438 79.371094 36.054688 81.519531 38.714844 83.46875 C 39.03125 83.929688 39.351562 84.386719 39.671875 84.839844 C 33.511719 81.96875 28.792969 78.332031 25.140625 73.621094 Z M 25.140625 73.621094 " fill-opacity="1" fill-rule="nonzero"/><path fill="#e6cdba" d="M 47.457031 28.503906 C 47.863281 27.660156 48.242188 26.808594 48.597656 25.945312 C 50.414062 26.671875 52.195312 27.503906 53.917969 28.417969 L 52.0625 30.386719 C 50.589844 29.710938 49.046875 29.082031 47.457031 28.503906 Z M 47.457031 28.503906 " fill-opacity="1" fill-rule="nonzero"/><path fill="#e6cdba" d="M 42.285156 8 C 43.597656 7.71875 44.871094 7.5 46.097656 7.339844 C 52.042969 9.277344 57.664062 13.441406 62.402344 19.40625 L 60.375 21.558594 C 54.046875 13.246094 46.246094 9.476562 42.285156 8 Z M 42.285156 8 " fill-opacity="1" fill-rule="nonzero"/><path fill="#e6cdba" d="M 34.101562 26.554688 C 35.699219 26.824219 37.265625 27.136719 38.789062 27.488281 C 38.363281 28.152344 37.921875 28.792969 37.46875 29.414062 C 36.351562 28.441406 35.230469 27.488281 34.101562 26.554688 Z M 34.101562 26.554688 " fill-opacity="1" fill-rule="nonzero"/><path fill="#e6cdba" d="M 49.140625 24.585938 C 49.742188 22.992188 50.265625 21.355469 50.714844 19.675781 C 52.523438 21.464844 54.339844 23.597656 56.085938 26.117188 L 54.953125 27.316406 C 53.078125 26.300781 51.128906 25.386719 49.140625 24.585938 Z M 49.140625 24.585938 " fill-opacity="1" fill-rule="nonzero"/><path fill="#e6cdba" d="M 38.574219 30.371094 C 39.269531 29.4375 39.9375 28.460938 40.5625 27.421875 C 40.574219 27.40625 40.582031 27.390625 40.589844 27.375 C 41.339844 26.128906 42.035156 24.808594 42.691406 23.40625 C 42.730469 23.34375 42.761719 23.273438 42.78125 23.199219 C 42.785156 23.199219 42.78125 23.195312 42.78125 23.195312 C 43.863281 20.84375 44.8125 18.261719 45.648438 15.4375 C 46.03125 15.703125 46.414062 15.980469 46.800781 16.277344 C 45.210938 22.472656 43 27.539062 40.070312 31.722656 C 39.570312 31.269531 39.074219 30.816406 38.574219 30.371094 Z M 38.574219 30.371094 " fill-opacity="1" fill-rule="nonzero"/><path fill="#e6cdba" d="M 41.15625 32.714844 C 44.144531 28.5 46.40625 23.425781 48.046875 17.265625 C 48.53125 17.664062 49.019531 18.089844 49.507812 18.535156 C 48.09375 24.148438 45.832031 29.234375 42.613281 34.050781 C 42.128906 33.597656 41.644531 33.160156 41.15625 32.714844 Z M 41.15625 32.714844 " fill-opacity="1" fill-rule="nonzero"/><path fill="#e6cdba" d="M 31.058594 20.414062 C 31.46875 16.644531 32.34375 13.347656 33.667969 10.59375 C 33.890625 10.507812 34.121094 10.421875 34.347656 10.339844 C 34.824219 10.421875 36.1875 10.699219 38.117188 11.421875 C 35.605469 14.320312 33.574219 17.300781 31.941406 20.496094 C 31.648438 20.464844 31.351562 20.441406 31.058594 20.414062 Z M 31.058594 20.414062 " fill-opacity="1" fill-rule="nonzero"/><path fill="#e6cdba" d="M 36.902344 9.441406 C 37.808594 9.148438 38.699219 8.882812 39.570312 8.648438 C 41.0625 9.058594 51.546875 12.257812 59.359375 22.636719 L 57.109375 25.03125 C 49.652344 14.382812 41.089844 10.675781 36.902344 9.441406 Z M 36.902344 9.441406 " fill-opacity="1" fill-rule="nonzero"/><path fill="#e6cdba" d="M 44.378906 14.585938 C 43.582031 17.347656 42.675781 19.859375 41.648438 22.15625 C 41.132812 22.027344 40.617188 21.898438 40.09375 21.78125 C 40.207031 19.164062 40.875 16.359375 42.132812 13.257812 C 42.855469 13.648438 43.605469 14.089844 44.378906 14.585938 Z M 44.378906 14.585938 " fill-opacity="1" fill-rule="nonzero"/><path fill="#e6cdba" d="M 33.496094 20.664062 C 35.105469 17.625 37.097656 14.777344 39.550781 12 C 39.867188 12.136719 40.195312 12.285156 40.53125 12.445312 C 38.21875 14.875 36.242188 17.679688 34.640625 20.804688 C 34.261719 20.753906 33.878906 20.710938 33.496094 20.664062 Z M 33.496094 20.664062 " fill-opacity="1" fill-rule="nonzero"/><path fill="#e6cdba" d="M 36.167969 21.035156 C 37.214844 19.058594 38.417969 17.226562 39.765625 15.542969 C 39.121094 17.625 38.75 19.589844 38.644531 21.472656 C 37.828125 21.3125 37.003906 21.167969 36.167969 21.035156 Z M 36.167969 21.035156 " fill-opacity="1" fill-rule="nonzero"/><path fill="#e6cdba" d="M 83.042969 15.554688 C 82.808594 15.601562 82.570312 15.535156 82.394531 15.378906 C 82.15625 15.167969 82.078125 14.832031 82.191406 14.542969 C 83.066406 12.351562 82.488281 11.273438 81.847656 10.753906 C 80.398438 9.582031 78.449219 10.839844 77.523438 11.769531 L 71.972656 17.667969 C 71.972656 17.667969 71.972656 17.667969 71.96875 17.671875 L 69.839844 19.933594 C 69.824219 19.949219 69.804688 19.953125 69.789062 19.964844 C 69.761719 19.992188 69.75 20.023438 69.730469 20.050781 L 66.1875 23.8125 C 66.183594 23.816406 66.183594 23.816406 66.183594 23.816406 L 54.96875 35.730469 C 53.816406 35.519531 52.652344 35.320312 51.480469 35.144531 C 50.921875 35.058594 50.367188 34.988281 49.8125 34.914062 L 74.226562 8.976562 C 74.277344 8.921875 79.261719 3.679688 82.6875 6.15625 C 86.148438 8.660156 84.71875 12.878906 83.554688 15.171875 C 83.414062 15.445312 83.171875 15.53125 83.042969 15.554688 Z M 83.042969 15.554688 " fill-opacity="1" fill-rule="nonzero"/><path fill="#e6cdba" d="M 71.488281 32.121094 C 71.464844 32.0625 71.4375 32.011719 71.414062 31.953125 C 73.488281 34.605469 75.296875 38.160156 76.695312 42.367188 C 76.035156 42.066406 75.347656 41.761719 74.625 41.453125 C 73.769531 38.234375 72.726562 35.089844 71.488281 32.121094 Z M 71.488281 32.121094 " fill-opacity="1" fill-rule="nonzero"/><path fill="#e6cdba" d="M 68.425781 25.808594 C 71.910156 27.316406 75.234375 29.261719 78.332031 31.613281 C 79.085938 32.726562 79.8125 33.851562 80.496094 34.980469 C 79.691406 34.296875 78.855469 33.632812 77.988281 32.992188 C 77.949219 32.953125 77.902344 32.925781 77.859375 32.894531 C 75.328125 31.03125 72.546875 29.351562 69.527344 27.875 C 69.171875 27.171875 68.804688 26.484375 68.425781 25.808594 Z M 68.425781 25.808594 " fill-opacity="1" fill-rule="nonzero"/><path fill="#e6cdba" d="M 74.90625 16.679688 C 75.773438 17.582031 76.597656 18.515625 77.378906 19.488281 C 76.160156 18.917969 74.953125 18.390625 73.757812 17.902344 Z M 74.90625 16.679688 " fill-opacity="1" fill-rule="nonzero"/><path fill="#e6cdba" d="M 70.300781 21.574219 C 72.246094 23.660156 74.078125 25.832031 75.777344 28.0625 C 73.285156 26.480469 70.675781 25.132812 67.980469 24.039062 Z M 70.300781 21.574219 " fill-opacity="1" fill-rule="nonzero"/><path fill="#e6cdba" d="M 72.699219 31.230469 C 74.15625 32.085938 75.535156 33.003906 76.851562 33.964844 C 78.023438 36.996094 78.933594 40.292969 79.585938 43.769531 C 79.234375 43.589844 78.875 43.40625 78.5 43.21875 C 77.03125 38.382812 75.035156 34.277344 72.699219 31.230469 Z M 72.699219 31.230469 " fill-opacity="1" fill-rule="nonzero"/><path fill="#e6cdba" d="M 27.949219 21.679688 C 32.53125 21.878906 36.914062 22.492188 41.019531 23.503906 C 40.566406 24.433594 40.089844 25.320312 39.59375 26.171875 C 37.121094 25.589844 34.53125 25.101562 31.882812 24.730469 C 30.578125 23.6875 29.265625 22.671875 27.949219 21.679688 Z M 27.949219 21.679688 " fill-opacity="1" fill-rule="nonzero"/><path fill="#e6cdba" d="M 81.238281 44.648438 C 80.703125 41.488281 79.957031 38.472656 79.003906 35.640625 C 80.382812 36.777344 81.679688 37.972656 82.871094 39.230469 C 84.117188 41.648438 85.195312 44.078125 86.058594 46.476562 C 86.125 46.652344 86.210938 46.808594 86.308594 46.960938 C 86.296875 47.242188 86.269531 47.527344 86.25 47.808594 C 85.667969 47.378906 84.84375 46.808594 83.769531 46.136719 C 83.667969 45.03125 83.519531 43.902344 83.304688 42.765625 C 83.230469 42.371094 82.851562 42.105469 82.453125 42.179688 C 82.058594 42.253906 81.796875 42.636719 81.871094 43.035156 C 82.003906 43.757812 82.109375 44.476562 82.199219 45.191406 C 81.890625 45.011719 81.570312 44.832031 81.238281 44.648438 Z M 81.238281 44.648438 " fill-opacity="1" fill-rule="nonzero"/><path fill="#e6cdba" d="M 62.445312 8.59375 C 66.039062 9.742188 68.402344 11.195312 69.445312 11.921875 L 68.175781 13.273438 C 66.296875 11.582031 64.382812 10.023438 62.445312 8.59375 Z M 62.445312 8.59375 " fill-opacity="1" fill-rule="nonzero"/><path fill="#e6cdba" d="M 28.359375 12.976562 C 29.433594 12.425781 30.554688 11.898438 31.722656 11.394531 C 30.671875 13.992188 29.960938 16.980469 29.601562 20.308594 C 28.773438 20.253906 27.941406 20.214844 27.101562 20.1875 C 27.402344 17.734375 27.824219 15.316406 28.359375 12.976562 Z M 28.359375 12.976562 " fill-opacity="1" fill-rule="nonzero"/><path fill="#e6cdba" d="M 84.570312 33.15625 C 81.84375 28.585938 78.546875 24.109375 74.816406 19.933594 C 76.28125 20.570312 77.761719 21.265625 79.246094 22.023438 C 81.566406 25.429688 83.363281 29.179688 84.570312 33.15625 Z M 84.570312 33.15625 " fill-opacity="1" fill-rule="nonzero"/></g></g></g><g clip-path="url(#57928dc538)"><g transform="matrix(1, 0, 0, 1, 149, 199)"><g clip-path="url(#26b2135f46)"><path fill="#803e08" d="M 180.804688 10.339844 C 174.566406 15 166.296875 13.460938 159.570312 10.753906 C 152.054688 7.710938 144.648438 2.785156 136.191406 3.6875 C 132.773438 4.027344 129.3125 5.34375 126.984375 7.972656 C 125.628906 9.515625 124.652344 11.542969 124.804688 13.609375 C 124.917969 15.640625 126.417969 17.40625 128.523438 17.371094 C 130.890625 17.332031 131.34375 14.925781 130.441406 13.199219 C 129.539062 11.429688 127.886719 10.152344 126.082031 9.402344 C 122.058594 7.636719 117.585938 7.070312 113.226562 7.257812 C 96.5 7.972656 81.054688 18.496094 63.992188 15.527344 C 60.308594 14.890625 56.585938 13.5 53.578125 11.207031 C 51.136719 9.363281 49.179688 6.246094 50.796875 3.199219 C 52.039062 0.832031 55.15625 0.304688 56.847656 2.449219 C 58.464844 4.441406 58.425781 7.597656 56.585938 9.4375 C 54.066406 11.996094 50.082031 11.917969 46.777344 11.582031 C 42.226562 11.128906 37.753906 10.191406 33.246094 9.289062 C 24.9375 7.636719 16.105469 6.246094 7.914062 9.175781 C 5.957031 9.890625 4.152344 10.867188 2.460938 12.070312 C 1.523438 12.746094 0.660156 11.207031 1.5625 10.527344 C 8.027344 5.90625 16.332031 5.15625 24 6.019531 C 28.621094 6.507812 33.132812 7.523438 37.679688 8.425781 C 41.925781 9.25 46.511719 10.339844 50.871094 10.003906 C 52.675781 9.851562 54.933594 9.25 55.871094 7.558594 C 56.511719 6.433594 56.359375 4.816406 55.609375 3.726562 C 54.632812 2.261719 52.828125 2.675781 52.113281 4.214844 C 51.285156 6.09375 52.375 7.972656 53.765625 9.214844 C 59.816406 14.777344 69.441406 14.964844 77.070312 13.800781 C 93.117188 11.355469 110.296875 1.09375 126.570312 8.125 C 129.199219 9.25 132.207031 11.808594 132.28125 14.925781 C 132.320312 17.933594 129.238281 19.4375 126.644531 18.460938 C 123.449219 17.257812 122.773438 13.574219 123.828125 10.605469 C 124.917969 7.558594 127.433594 5.191406 130.328125 3.875 C 145.964844 -3.226562 159.230469 14.589844 174.867188 12.03125 C 176.859375 11.695312 178.738281 10.980469 180.429688 9.851562 C 180.84375 9.628906 181.105469 10.117188 180.804688 10.339844 Z M 180.804688 10.339844 " fill-opacity="1" fill-rule="nonzero"/></g></g></g><g fill="#ffffff" fill-opacity="1"><g transform="translate(137.168476, 194.447858)"><g><path d="M 8.765625 0.25 C 6.304688 0.25 4.375 -0.367188 2.96875 -1.609375 C 1.5625 -2.847656 0.859375 -4.546875 0.859375 -6.703125 C 0.859375 -8.859375 1.550781 -10.554688 2.9375 -11.796875 C 4.332031 -13.046875 6.242188 -13.671875 8.671875 -13.671875 C 10.523438 -13.671875 12.113281 -13.328125 13.4375 -12.640625 L 13.46875 -9.34375 L 13.328125 -9.34375 C 12.671875 -11.6875 11.179688 -12.859375 8.859375 -12.859375 C 7.359375 -12.859375 6.171875 -12.3125 5.296875 -11.21875 C 4.421875 -10.132812 3.984375 -8.644531 3.984375 -6.75 C 3.984375 -4.863281 4.398438 -3.363281 5.234375 -2.25 C 6.066406 -1.144531 7.195312 -0.570312 8.625 -0.53125 C 10.113281 -0.53125 11.242188 -0.898438 12.015625 -1.640625 C 12.804688 -2.410156 13.359375 -3.726562 13.671875 -5.59375 L 13.8125 -5.59375 L 14.015625 -2.296875 C 12.972656 -0.585938 11.222656 0.257812 8.765625 0.25 Z M 8.765625 0.25 "/></g></g></g><g fill="#ffffff" fill-opacity="1"><g transform="translate(152.095073, 194.447858)"><g><path d="M 6.09375 -12.5625 L 5.265625 -12.5625 C 5.234375 -12.5625 5.210938 -12.5625 5.203125 -12.5625 L 5.203125 -1.390625 C 5.210938 -1.066406 5.335938 -0.785156 5.578125 -0.546875 C 5.816406 -0.304688 6.101562 -0.1875 6.4375 -0.1875 L 6.6875 -0.1875 L 6.6875 0 L 0.859375 0 L 0.859375 -0.1875 L 1.109375 -0.1875 C 1.566406 -0.1875 1.914062 -0.382812 2.15625 -0.78125 C 2.257812 -0.957031 2.316406 -1.15625 2.328125 -1.375 L 2.328125 -12 C 2.316406 -12.332031 2.191406 -12.613281 1.953125 -12.84375 C 1.722656 -13.082031 1.441406 -13.203125 1.109375 -13.203125 L 0.859375 -13.203125 L 0.859375 -13.40625 L 7.421875 -13.40625 C 8.660156 -13.40625 9.707031 -13.132812 10.5625 -12.59375 C 11 -12.320312 11.34375 -11.945312 11.59375 -11.46875 C 11.851562 -10.988281 11.984375 -10.363281 11.984375 -9.59375 C 11.984375 -8.820312 11.710938 -8.078125 11.171875 -7.359375 C 10.640625 -6.648438 9.863281 -6.242188 8.84375 -6.140625 C 9.582031 -5.898438 10.234375 -5.335938 10.796875 -4.453125 C 12.171875 -2.253906 13.191406 -0.941406 13.859375 -0.515625 C 14.191406 -0.304688 14.609375 -0.195312 15.109375 -0.1875 L 15.109375 0 L 13.21875 0 C 12.113281 0 11.191406 -0.144531 10.453125 -0.4375 C 9.722656 -0.726562 9.148438 -1.242188 8.734375 -1.984375 C 8.484375 -2.410156 7.953125 -3.503906 7.140625 -5.265625 C 6.785156 -6.046875 6.351562 -6.472656 5.84375 -6.546875 L 5.84375 -6.734375 L 6.4375 -6.734375 C 7.007812 -6.734375 7.515625 -6.90625 7.953125 -7.25 C 8.390625 -7.59375 8.6875 -8.15625 8.84375 -8.9375 C 8.894531 -9.207031 8.921875 -9.421875 8.921875 -9.578125 C 8.921875 -10.617188 8.707031 -11.367188 8.28125 -11.828125 C 7.863281 -12.296875 7.320312 -12.539062 6.65625 -12.5625 C 6.53125 -12.5625 6.34375 -12.5625 6.09375 -12.5625 Z M 6.09375 -12.5625 "/></g></g></g><g fill="#ffffff" fill-opacity="1"><g transform="translate(166.390162, 194.447858)"><g><path d="M 14.125 -0.1875 L 14.296875 -0.1875 L 14.296875 0 L 8.1875 0 L 8.1875 -0.1875 L 8.359375 -0.1875 C 8.640625 -0.1875 8.847656 -0.269531 8.984375 -0.4375 C 9.117188 -0.613281 9.1875 -0.78125 9.1875 -0.9375 C 9.1875 -1.09375 9.15625 -1.242188 9.09375 -1.390625 L 8.15625 -3.75 L 3.671875 -3.75 L 2.671875 -1.390625 C 2.609375 -1.234375 2.578125 -1.078125 2.578125 -0.921875 C 2.578125 -0.773438 2.644531 -0.613281 2.78125 -0.4375 C 2.925781 -0.269531 3.140625 -0.1875 3.421875 -0.1875 L 3.578125 -0.1875 L 3.578125 0 L -0.515625 0 L -0.515625 -0.1875 L -0.34375 -0.1875 C -0.0507812 -0.1875 0.238281 -0.273438 0.53125 -0.453125 C 0.820312 -0.640625 1.066406 -0.910156 1.265625 -1.265625 L 5.6875 -11.28125 C 6.28125 -12.539062 6.597656 -13.375 6.640625 -13.78125 L 6.8125 -13.78125 L 12.5 -1.296875 C 12.6875 -0.929688 12.925781 -0.65625 13.21875 -0.46875 C 13.507812 -0.28125 13.8125 -0.1875 14.125 -0.1875 Z M 4 -4.5625 L 7.828125 -4.5625 L 5.96875 -9.265625 Z M 4 -4.5625 "/></g></g></g><g fill="#ffffff" fill-opacity="1"><g transform="translate(180.092012, 194.447858)"><g><path d="M 5.15625 -12.578125 L 5.15625 -7 L 7.671875 -7 C 8.148438 -7.019531 8.539062 -7.179688 8.84375 -7.484375 C 9.144531 -7.785156 9.296875 -8.175781 9.296875 -8.65625 L 9.296875 -8.828125 L 9.5 -8.828125 L 9.5 -4.40625 L 9.296875 -4.40625 L 9.296875 -4.5625 C 9.296875 -5.03125 9.144531 -5.414062 8.84375 -5.71875 C 8.550781 -6.03125 8.175781 -6.191406 7.71875 -6.203125 L 5.15625 -6.203125 L 5.15625 -1.390625 C 5.15625 -1.066406 5.273438 -0.785156 5.515625 -0.546875 C 5.753906 -0.304688 6.039062 -0.1875 6.375 -0.1875 L 6.609375 -0.1875 L 6.625 0 L 0.796875 0 L 0.796875 -0.1875 L 1.046875 -0.1875 C 1.378906 -0.1875 1.664062 -0.304688 1.90625 -0.546875 C 2.144531 -0.785156 2.269531 -1.066406 2.28125 -1.390625 L 2.28125 -12.0625 C 2.28125 -12.507812 2.066406 -12.835938 1.640625 -13.046875 C 1.460938 -13.148438 1.265625 -13.203125 1.046875 -13.203125 L 0.796875 -13.203125 L 0.796875 -13.40625 L 8.140625 -13.40625 C 8.535156 -13.40625 8.96875 -13.441406 9.4375 -13.515625 C 9.90625 -13.585938 10.238281 -13.664062 10.4375 -13.75 L 10.4375 -10.515625 L 10.234375 -10.515625 L 10.234375 -10.703125 C 10.234375 -11.265625 10.070312 -11.710938 9.75 -12.046875 C 9.425781 -12.390625 8.984375 -12.566406 8.421875 -12.578125 Z M 5.15625 -12.578125 "/></g></g></g><g fill="#ffffff" fill-opacity="1"><g transform="translate(191.478333, 194.447858)"><g><path d="M 7.828125 -12.609375 L 7.828125 -1.375 C 7.835938 -1.039062 7.960938 -0.757812 8.203125 -0.53125 C 8.441406 -0.300781 8.722656 -0.1875 9.046875 -0.1875 L 9.28125 -0.1875 L 9.296875 0 L 3.484375 0 L 3.484375 -0.1875 L 3.734375 -0.1875 C 4.054688 -0.1875 4.332031 -0.300781 4.5625 -0.53125 C 4.800781 -0.757812 4.929688 -1.035156 4.953125 -1.359375 L 4.953125 -12.609375 L 2.375 -12.609375 C 1.789062 -12.597656 1.320312 -12.410156 0.96875 -12.046875 C 0.625 -11.691406 0.453125 -11.226562 0.453125 -10.65625 L 0.453125 -10.4375 L 0.265625 -10.4375 L 0.265625 -13.765625 C 0.785156 -13.546875 1.539062 -13.429688 2.53125 -13.421875 L 10.234375 -13.421875 C 10.628906 -13.421875 11.0625 -13.457031 11.53125 -13.53125 C 12 -13.601562 12.320312 -13.679688 12.5 -13.765625 L 12.5 -10.4375 L 12.3125 -10.4375 L 12.3125 -10.65625 C 12.3125 -11.445312 12.007812 -12.007812 11.40625 -12.34375 C 11.125 -12.507812 10.785156 -12.597656 10.390625 -12.609375 Z M 7.828125 -12.609375 "/></g></g></g><g fill="#ffffff" fill-opacity="1"><g transform="translate(204.223354, 194.447858)"><g><path d="M 1.046875 -0.1875 C 1.378906 -0.1875 1.664062 -0.304688 1.90625 -0.546875 C 2.144531 -0.785156 2.269531 -1.066406 2.28125 -1.390625 L 2.28125 -12.015625 C 2.269531 -12.347656 2.144531 -12.628906 1.90625 -12.859375 C 1.664062 -13.085938 1.378906 -13.203125 1.046875 -13.203125 L 0.796875 -13.203125 L 0.796875 -13.40625 L 6.625 -13.40625 L 6.609375 -13.203125 L 6.375 -13.203125 C 6.039062 -13.203125 5.753906 -13.085938 5.515625 -12.859375 C 5.273438 -12.628906 5.15625 -12.347656 5.15625 -12.015625 L 5.15625 -1.390625 C 5.15625 -1.066406 5.273438 -0.785156 5.515625 -0.546875 C 5.753906 -0.304688 6.039062 -0.1875 6.375 -0.1875 L 6.609375 -0.1875 L 6.625 0 L 0.796875 0 L 0.796875 -0.1875 Z M 1.046875 -0.1875 "/></g></g></g><g fill="#ffffff" fill-opacity="1"><g transform="translate(211.610103, 194.447858)"><g><path d="M 15.640625 -13.203125 C 15.191406 -13.203125 14.851562 -13.015625 14.625 -12.640625 C 14.519531 -12.472656 14.460938 -12.28125 14.453125 -12.0625 L 14.453125 -2.1875 C 14.453125 -1.332031 14.507812 -0.609375 14.625 -0.015625 L 14.6875 0.265625 L 14.515625 0.265625 L 4.84375 -8.9375 L 4.84375 -1.34375 C 4.84375 -1.019531 4.957031 -0.742188 5.1875 -0.515625 C 5.414062 -0.296875 5.691406 -0.1875 6.015625 -0.1875 L 6.375 -0.1875 L 6.375 0 L 0.578125 0 L 0.578125 -0.1875 L 0.921875 -0.1875 C 1.253906 -0.1875 1.535156 -0.296875 1.765625 -0.515625 C 1.992188 -0.742188 2.109375 -1.023438 2.109375 -1.359375 L 2.109375 -11.296875 C 2.109375 -12.140625 2.050781 -12.84375 1.9375 -13.40625 L 1.890625 -13.6875 L 2.0625 -13.6875 L 11.734375 -4.484375 L 11.734375 -12.046875 C 11.722656 -12.367188 11.601562 -12.640625 11.375 -12.859375 C 11.144531 -13.085938 10.867188 -13.203125 10.546875 -13.203125 L 10.203125 -13.203125 L 10.203125 -13.40625 L 16 -13.40625 L 16 -13.203125 Z M 15.640625 -13.203125 "/></g></g></g><g fill="#ffffff" fill-opacity="1"><g transform="translate(228.163316, 194.447858)"><g><path d="M 8.09375 0.265625 C 5.914062 0.265625 4.164062 -0.359375 2.84375 -1.609375 C 1.519531 -2.867188 0.859375 -4.566406 0.859375 -6.703125 C 0.859375 -8.847656 1.519531 -10.546875 2.84375 -11.796875 C 4.164062 -13.046875 5.957031 -13.671875 8.21875 -13.671875 C 9.238281 -13.671875 10.222656 -13.570312 11.171875 -13.375 C 12.128906 -13.175781 12.90625 -12.929688 13.5 -12.640625 L 13.53125 -9.34375 L 13.359375 -9.34375 C 13.023438 -10.582031 12.457031 -11.476562 11.65625 -12.03125 C 10.851562 -12.582031 9.894531 -12.859375 8.78125 -12.859375 C 7.238281 -12.859375 6.050781 -12.304688 5.21875 -11.203125 C 4.394531 -10.097656 3.984375 -8.585938 3.984375 -6.671875 C 3.984375 -4.753906 4.363281 -3.25 5.125 -2.15625 C 5.882812 -1.070312 6.957031 -0.53125 8.34375 -0.53125 C 9.351562 -0.53125 10.195312 -0.816406 10.875 -1.390625 C 11.207031 -1.691406 11.445312 -2.039062 11.59375 -2.4375 L 11.59375 -5.359375 C 11.59375 -5.640625 11.503906 -5.851562 11.328125 -6 C 11.160156 -6.144531 10.921875 -6.21875 10.609375 -6.21875 L 10.296875 -6.21875 L 10.296875 -6.40625 L 15.671875 -6.40625 L 15.671875 -6.21875 L 15.390625 -6.21875 C 15.085938 -6.21875 14.851562 -6.144531 14.6875 -6 C 14.519531 -5.851562 14.4375 -5.640625 14.4375 -5.359375 L 14.4375 -2.203125 C 13.9375 -1.546875 13.109375 -0.96875 11.953125 -0.46875 C 10.804688 0.0195312 9.519531 0.265625 8.09375 0.265625 Z M 8.09375 0.265625 "/></g></g></g><g fill="#ffffff" fill-opacity="1"><g transform="translate(244.161572, 194.447858)"><g/></g></g><g fill="#ffffff" fill-opacity="1"><g transform="translate(248.94574, 194.447858)"><g><path d="M 19.15625 -13.203125 L 18.984375 -13.203125 C 18.660156 -13.203125 18.335938 -13.109375 18.015625 -12.921875 C 17.691406 -12.734375 17.457031 -12.457031 17.3125 -12.09375 L 14.109375 -1.78125 C 13.890625 -1.082031 13.78125 -0.429688 13.78125 0.171875 C 13.78125 0.234375 13.78125 0.289062 13.78125 0.34375 L 13.59375 0.34375 L 9.40625 -8.90625 L 6.390625 -1.78125 C 6.097656 -1.039062 5.945312 -0.332031 5.9375 0.34375 L 5.734375 0.34375 L 1.171875 -12.09375 C 1.003906 -12.46875 0.765625 -12.742188 0.453125 -12.921875 C 0.148438 -13.109375 -0.160156 -13.203125 -0.484375 -13.203125 L -0.640625 -13.203125 L -0.640625 -13.40625 L 5.203125 -13.40625 L 5.203125 -13.203125 L 5.03125 -13.203125 C 4.757812 -13.203125 4.554688 -13.113281 4.421875 -12.9375 C 4.296875 -12.769531 4.234375 -12.609375 4.234375 -12.453125 C 4.234375 -12.304688 4.253906 -12.160156 4.296875 -12.015625 L 6.65625 -5.359375 L 10.125 -13.703125 L 10.296875 -13.6875 L 14.109375 -5.28125 L 16.015625 -12.015625 C 16.054688 -12.160156 16.078125 -12.304688 16.078125 -12.453125 C 16.078125 -12.609375 16.015625 -12.769531 15.890625 -12.9375 C 15.773438 -13.113281 15.578125 -13.203125 15.296875 -13.203125 L 15.125 -13.203125 L 15.125 -13.40625 L 19.15625 -13.40625 Z M 19.15625 -13.203125 "/></g></g></g><g fill="#ffffff" fill-opacity="1"><g transform="translate(267.527442, 194.447858)"><g><path d="M 2.96875 -11.796875 C 4.332031 -13.046875 6.164062 -13.671875 8.46875 -13.671875 C 10.769531 -13.671875 12.597656 -13.046875 13.953125 -11.796875 C 15.316406 -10.546875 16 -8.847656 16 -6.703125 C 16 -4.554688 15.316406 -2.859375 13.953125 -1.609375 C 12.597656 -0.359375 10.769531 0.265625 8.46875 0.265625 C 6.164062 0.265625 4.332031 -0.359375 2.96875 -1.609375 C 1.613281 -2.859375 0.9375 -4.554688 0.9375 -6.703125 C 0.9375 -8.847656 1.613281 -10.546875 2.96875 -11.796875 Z M 5.25 -2.1875 C 6.039062 -1.082031 7.109375 -0.53125 8.453125 -0.53125 C 9.804688 -0.53125 10.878906 -1.082031 11.671875 -2.1875 C 12.460938 -3.289062 12.859375 -4.789062 12.859375 -6.6875 C 12.859375 -8.59375 12.460938 -10.097656 11.671875 -11.203125 C 10.878906 -12.304688 9.804688 -12.859375 8.453125 -12.859375 C 7.109375 -12.859375 6.039062 -12.304688 5.25 -11.203125 C 4.46875 -10.097656 4.078125 -8.59375 4.078125 -6.6875 C 4.078125 -4.789062 4.46875 -3.289062 5.25 -2.1875 Z M 5.25 -2.1875 "/></g></g></g><g fill="#ffffff" fill-opacity="1"><g transform="translate(284.329439, 194.447858)"><g><path d="M 6.09375 -12.5625 L 5.265625 -12.5625 C 5.234375 -12.5625 5.210938 -12.5625 5.203125 -12.5625 L 5.203125 -1.390625 C 5.210938 -1.066406 5.335938 -0.785156 5.578125 -0.546875 C 5.816406 -0.304688 6.101562 -0.1875 6.4375 -0.1875 L 6.6875 -0.1875 L 6.6875 0 L 0.859375 0 L 0.859375 -0.1875 L 1.109375 -0.1875 C 1.566406 -0.1875 1.914062 -0.382812 2.15625 -0.78125 C 2.257812 -0.957031 2.316406 -1.15625 2.328125 -1.375 L 2.328125 -12 C 2.316406 -12.332031 2.191406 -12.613281 1.953125 -12.84375 C 1.722656 -13.082031 1.441406 -13.203125 1.109375 -13.203125 L 0.859375 -13.203125 L 0.859375 -13.40625 L 7.421875 -13.40625 C 8.660156 -13.40625 9.707031 -13.132812 10.5625 -12.59375 C 11 -12.320312 11.34375 -11.945312 11.59375 -11.46875 C 11.851562 -10.988281 11.984375 -10.363281 11.984375 -9.59375 C 11.984375 -8.820312 11.710938 -8.078125 11.171875 -7.359375 C 10.640625 -6.648438 9.863281 -6.242188 8.84375 -6.140625 C 9.582031 -5.898438 10.234375 -5.335938 10.796875 -4.453125 C 12.171875 -2.253906 13.191406 -0.941406 13.859375 -0.515625 C 14.191406 -0.304688 14.609375 -0.195312 15.109375 -0.1875 L 15.109375 0 L 13.21875 0 C 12.113281 0 11.191406 -0.144531 10.453125 -0.4375 C 9.722656 -0.726562 9.148438 -1.242188 8.734375 -1.984375 C 8.484375 -2.410156 7.953125 -3.503906 7.140625 -5.265625 C 6.785156 -6.046875 6.351562 -6.472656 5.84375 -6.546875 L 5.84375 -6.734375 L 6.4375 -6.734375 C 7.007812 -6.734375 7.515625 -6.90625 7.953125 -7.25 C 8.390625 -7.59375 8.6875 -8.15625 8.84375 -8.9375 C 8.894531 -9.207031 8.921875 -9.421875 8.921875 -9.578125 C 8.921875 -10.617188 8.707031 -11.367188 8.28125 -11.828125 C 7.863281 -12.296875 7.320312 -12.539062 6.65625 -12.5625 C 6.53125 -12.5625 6.34375 -12.5625 6.09375 -12.5625 Z M 6.09375 -12.5625 "/></g></g></g><g fill="#ffffff" fill-opacity="1"><g transform="translate(298.624528, 194.447858)"><g><path d="M 1.046875 -0.1875 C 1.378906 -0.1875 1.664062 -0.304688 1.90625 -0.546875 C 2.144531 -0.785156 2.269531 -1.066406 2.28125 -1.390625 L 2.28125 -12 C 2.269531 -12.332031 2.144531 -12.613281 1.90625 -12.84375 C 1.664062 -13.082031 1.378906 -13.203125 1.046875 -13.203125 L 0.796875 -13.203125 L 0.796875 -13.40625 L 6.625 -13.40625 L 6.609375 -13.203125 L 6.375 -13.203125 C 6.039062 -13.203125 5.753906 -13.082031 5.515625 -12.84375 C 5.273438 -12.613281 5.15625 -12.332031 5.15625 -12 L 5.15625 -0.828125 L 7.65625 -0.828125 C 8.582031 -0.828125 9.363281 -1.09375 10 -1.625 C 10.632812 -2.164062 11.101562 -2.925781 11.40625 -3.90625 L 11.59375 -3.90625 L 10.71875 0 L 0.796875 0 L 0.796875 -0.1875 Z M 1.046875 -0.1875 "/></g></g></g><g fill="#ffffff" fill-opacity="1"><g transform="translate(310.41272, 194.447858)"><g><path d="M 7.75 -13.40625 C 10.007812 -13.40625 11.796875 -12.800781 13.109375 -11.59375 C 14.421875 -10.394531 15.078125 -8.757812 15.078125 -6.6875 C 15.078125 -4.625 14.421875 -2.992188 13.109375 -1.796875 C 11.796875 -0.597656 10.007812 0 7.75 0 L 0.796875 0 L 0.796875 -0.1875 L 1.046875 -0.1875 C 1.378906 -0.1875 1.664062 -0.304688 1.90625 -0.546875 C 2.144531 -0.785156 2.269531 -1.066406 2.28125 -1.390625 L 2.28125 -12.109375 C 2.28125 -12.421875 2.15625 -12.679688 1.90625 -12.890625 C 1.65625 -13.097656 1.367188 -13.203125 1.046875 -13.203125 L 0.796875 -13.203125 L 0.796875 -13.40625 Z M 7.5 -0.828125 C 8.414062 -0.828125 9.207031 -1.0625 9.875 -1.53125 C 10.550781 -2 11.066406 -2.675781 11.421875 -3.5625 C 11.785156 -4.457031 11.96875 -5.425781 11.96875 -6.46875 C 11.96875 -7.519531 11.859375 -8.410156 11.640625 -9.140625 C 11.429688 -9.867188 11.132812 -10.488281 10.75 -11 C 9.96875 -12.0625 8.882812 -12.59375 7.5 -12.59375 L 5.15625 -12.59375 L 5.15625 -0.828125 Z M 7.5 -0.828125 "/></g></g></g><g clip-path="url(#f90c98e2d7)"><g clip-path="url(#a67c9f4c6b)"><g transform="matrix(1, 0, 0, 1, 144, 136)"><g clip-path="url(#5ca82d8b73)"><g clip-path="url(#78d2759e25)"><g clip-path="url(#b8c816cbd8)"><path fill="#e6cdba" d="M 0.128906 0.132812 L 37.859375 0.132812 L 37.859375 37.863281 L 0.128906 37.863281 Z M 0.128906 0.132812 " fill-opacity="1" fill-rule="nonzero"/></g></g></g></g></g></g><g fill="#ffffff" fill-opacity="1"><g transform="translate(149.531157, 229.524273)"><g><path d="M 0.546875 0 L 0.546875 -6.484375 L 1.3125 -6.484375 L 1.3125 -3.71875 L 4.890625 -3.71875 L 4.890625 -6.484375 L 5.65625 -6.484375 L 5.65625 0 L 4.890625 0 L 4.890625 -3.03125 L 1.3125 -3.03125 L 1.3125 0 Z M 0.546875 0 "/></g></g></g><g fill="#ffffff" fill-opacity="1"><g transform="translate(162.131559, 229.524273)"><g><path d="M 0.09375 0 L 2.609375 -6.484375 L 3.53125 -6.484375 L 6.03125 0 L 5.21875 0 L 4.625 -1.546875 L 1.5 -1.546875 L 0.90625 0 Z M 1.734375 -2.234375 L 4.40625 -2.234375 L 3.078125 -5.71875 L 3.0625 -5.71875 Z M 1.734375 -2.234375 "/></g></g></g><g fill="#ffffff" fill-opacity="1"><g transform="translate(174.640088, 229.524273)"><g><path d="M 0.546875 0 L 0.546875 -6.484375 L 1.578125 -6.484375 L 4.890625 -0.984375 L 4.90625 -0.984375 L 4.90625 -6.484375 L 5.671875 -6.484375 L 5.671875 0 L 4.65625 0 L 1.328125 -5.484375 L 1.3125 -5.484375 L 1.3125 0 Z M 0.546875 0 "/></g></g></g><g fill="#ffffff" fill-opacity="1"><g transform="translate(187.258869, 229.524273)"><g><path d="M 0.546875 0 L 0.546875 -6.484375 L 2.90625 -6.484375 C 4 -6.484375 4.835938 -6.203125 5.421875 -5.640625 C 6.003906 -5.078125 6.296875 -4.273438 6.296875 -3.234375 C 6.296875 -2.203125 6.003906 -1.40625 5.421875 -0.84375 C 4.835938 -0.28125 4 0 2.90625 0 Z M 1.3125 -0.6875 L 2.90625 -0.6875 C 3.75 -0.6875 4.398438 -0.90625 4.859375 -1.34375 C 5.316406 -1.78125 5.546875 -2.410156 5.546875 -3.234375 C 5.546875 -4.054688 5.316406 -4.6875 4.859375 -5.125 C 4.398438 -5.570312 3.75 -5.796875 2.90625 -5.796875 L 1.3125 -5.796875 Z M 1.3125 -0.6875 "/></g></g></g><g fill="#ffffff" fill-opacity="1"><g transform="translate(200.272712, 229.524273)"><g><path d="M 0.546875 0 L 0.546875 -6.484375 L 1.65625 -6.484375 L 4.03125 -0.84375 L 6.390625 -6.484375 L 7.5 -6.484375 L 7.5 0 L 6.734375 0 L 6.734375 -5.375 L 6.71875 -5.375 L 4.421875 0 L 3.625 0 L 1.328125 -5.359375 L 1.3125 -5.359375 L 1.3125 0 Z M 0.546875 0 "/></g></g></g><g fill="#ffffff" fill-opacity="1"><g transform="translate(214.710611, 229.524273)"><g><path d="M 0.09375 0 L 2.609375 -6.484375 L 3.53125 -6.484375 L 6.03125 0 L 5.21875 0 L 4.625 -1.546875 L 1.5 -1.546875 L 0.90625 0 Z M 1.734375 -2.234375 L 4.40625 -2.234375 L 3.078125 -5.71875 L 3.0625 -5.71875 Z M 1.734375 -2.234375 "/></g></g></g><g fill="#ffffff" fill-opacity="1"><g transform="translate(227.21914, 229.524273)"><g><path d="M 0.546875 0 L 0.546875 -6.484375 L 2.90625 -6.484375 C 4 -6.484375 4.835938 -6.203125 5.421875 -5.640625 C 6.003906 -5.078125 6.296875 -4.273438 6.296875 -3.234375 C 6.296875 -2.203125 6.003906 -1.40625 5.421875 -0.84375 C 4.835938 -0.28125 4 0 2.90625 0 Z M 1.3125 -0.6875 L 2.90625 -0.6875 C 3.75 -0.6875 4.398438 -0.90625 4.859375 -1.34375 C 5.316406 -1.78125 5.546875 -2.410156 5.546875 -3.234375 C 5.546875 -4.054688 5.316406 -4.6875 4.859375 -5.125 C 4.398438 -5.570312 3.75 -5.796875 2.90625 -5.796875 L 1.3125 -5.796875 Z M 1.3125 -0.6875 "/></g></g></g><g fill="#ffffff" fill-opacity="1"><g transform="translate(240.232983, 229.524273)"><g><path d="M 0.546875 0 L 0.546875 -6.484375 L 4.984375 -6.484375 L 4.984375 -5.796875 L 1.296875 -5.796875 L 1.296875 -3.671875 L 4.609375 -3.671875 L 4.609375 -3.015625 L 1.296875 -3.015625 L 1.296875 -0.6875 L 5.078125 -0.6875 L 5.078125 0 Z M 0.546875 0 "/></g></g></g><g fill="#ffffff" fill-opacity="1"><g transform="translate(251.923831, 229.524273)"><g/></g></g><g fill="#ffffff" fill-opacity="1"><g transform="translate(260.812502, 229.524273)"><g><path d="M 0.546875 0 L 0.546875 -6.484375 L 1.3125 -6.484375 L 1.3125 0 Z M 0.546875 0 "/></g></g></g><g fill="#ffffff" fill-opacity="1"><g transform="translate(269.06724, 229.524273)"><g><path d="M 2.265625 0 L 2.265625 -5.796875 L 0.09375 -5.796875 L 0.09375 -6.484375 L 5.1875 -6.484375 L 5.1875 -5.796875 L 3.015625 -5.796875 L 3.015625 0 Z M 2.265625 0 "/></g></g></g><g fill="#ffffff" fill-opacity="1"><g transform="translate(280.739709, 229.524273)"><g><path d="M 0.546875 0 L 0.546875 -6.484375 L 4.984375 -6.484375 L 4.984375 -5.796875 L 1.296875 -5.796875 L 1.296875 -3.671875 L 4.609375 -3.671875 L 4.609375 -3.015625 L 1.296875 -3.015625 L 1.296875 -0.6875 L 5.078125 -0.6875 L 5.078125 0 Z M 0.546875 0 "/></g></g></g><g fill="#ffffff" fill-opacity="1"><g transform="translate(292.430558, 229.524273)"><g><path d="M 0.546875 0 L 0.546875 -6.484375 L 1.65625 -6.484375 L 4.03125 -0.84375 L 6.390625 -6.484375 L 7.5 -6.484375 L 7.5 0 L 6.734375 0 L 6.734375 -5.375 L 6.71875 -5.375 L 4.421875 0 L 3.625 0 L 1.328125 -5.359375 L 1.3125 -5.359375 L 1.3125 0 Z M 0.546875 0 "/></g></g></g><g fill="#ffffff" fill-opacity="1"><g transform="translate(306.868457, 229.524273)"><g><path d="M 2.984375 0.234375 C 2.484375 0.234375 2.03125 0.140625 1.625 -0.046875 C 1.21875 -0.242188 0.882812 -0.515625 0.625 -0.859375 C 0.375 -1.203125 0.226562 -1.597656 0.1875 -2.046875 L 0.9375 -2.171875 C 0.957031 -1.835938 1.054688 -1.539062 1.234375 -1.28125 C 1.421875 -1.019531 1.664062 -0.816406 1.96875 -0.671875 C 2.269531 -0.523438 2.609375 -0.453125 2.984375 -0.453125 C 3.492188 -0.453125 3.894531 -0.570312 4.1875 -0.8125 C 4.476562 -1.050781 4.625 -1.347656 4.625 -1.703125 C 4.625 -1.984375 4.515625 -2.210938 4.296875 -2.390625 C 4.085938 -2.578125 3.75 -2.722656 3.28125 -2.828125 L 2.234375 -3.0625 C 1.660156 -3.195312 1.234375 -3.398438 0.953125 -3.671875 C 0.679688 -3.941406 0.546875 -4.289062 0.546875 -4.71875 C 0.546875 -5.113281 0.632812 -5.457031 0.8125 -5.75 C 1 -6.050781 1.253906 -6.285156 1.578125 -6.453125 C 1.910156 -6.617188 2.296875 -6.703125 2.734375 -6.703125 C 3.128906 -6.703125 3.488281 -6.625 3.8125 -6.46875 C 4.132812 -6.320312 4.398438 -6.109375 4.609375 -5.828125 C 4.816406 -5.554688 4.945312 -5.238281 5 -4.875 L 4.28125 -4.6875 C 4.238281 -5.09375 4.078125 -5.414062 3.796875 -5.65625 C 3.515625 -5.90625 3.164062 -6.03125 2.75 -6.03125 C 2.300781 -6.03125 1.945312 -5.914062 1.6875 -5.6875 C 1.425781 -5.46875 1.296875 -5.1875 1.296875 -4.84375 C 1.296875 -4.570312 1.390625 -4.351562 1.578125 -4.1875 C 1.765625 -4.019531 2.0625 -3.890625 2.46875 -3.796875 L 3.515625 -3.5625 C 4.765625 -3.289062 5.390625 -2.707031 5.390625 -1.8125 C 5.390625 -1.425781 5.289062 -1.078125 5.09375 -0.765625 C 4.894531 -0.453125 4.613281 -0.207031 4.25 -0.03125 C 3.894531 0.144531 3.472656 0.234375 2.984375 0.234375 Z M 2.984375 0.234375 "/></g></g></g></svg>