<svg xmlns="http://www.w3.org/2000/svg" xmlns:xlink="http://www.w3.org/1999/xlink" width="500" zoomAndPan="magnify" viewBox="0 0 375 374.999991" height="500" preserveAspectRatio="xMidYMid meet" version="1.0"><defs><g/><clipPath id="482adfb6de"><path d="M 97.34375 97.503906 L 296 97.503906 L 296 258 L 97.34375 258 Z M 97.34375 97.503906 " clip-rule="nonzero"/></clipPath></defs><path fill="#ce882b" d="M 249.480469 143.945312 C 249.292969 143.945312 249.113281 143.839844 249.027344 143.660156 C 245.96875 137.261719 242.054688 131.296875 237.394531 125.921875 C 237.210938 125.710938 237.234375 125.398438 237.445312 125.214844 C 237.652344 125.035156 237.96875 125.054688 238.148438 125.265625 C 242.867188 130.707031 246.832031 136.753906 249.929688 143.230469 C 250.046875 143.476562 249.945312 143.777344 249.695312 143.894531 C 249.625 143.929688 249.550781 143.945312 249.480469 143.945312 " fill-opacity="1" fill-rule="nonzero"/><path fill="#ce882b" d="M 238.164062 123.046875 C 235.472656 125.738281 232.902344 127.53125 232.421875 127.050781 C 231.941406 126.570312 233.734375 124 236.425781 121.308594 L 237.851562 119.886719 C 240.542969 117.195312 243.113281 115.402344 243.59375 115.882812 C 244.070312 116.359375 242.277344 118.933594 239.585938 121.625 Z M 243.011719 120.695312 C 244.359375 119.300781 247.960938 115.535156 245.9375 113.507812 C 244.191406 111.765625 240.609375 114.816406 239.277344 116.089844 C 237.25 118.035156 235.21875 119.980469 233.191406 121.925781 C 232.414062 122.667969 229.738281 125.46875 228.984375 126.234375 C 228.132812 127.089844 180.425781 176.261719 146.488281 211.097656 C 124.160156 234.019531 115.949219 243.8125 115.949219 243.8125 C 115.949219 243.8125 128.3125 233.03125 148.859375 213.074219 C 183.742188 179.199219 232.363281 131.34375 233.199219 130.515625 C 233.316406 130.394531 235.742188 127.96875 235.863281 127.847656 C 238.246094 125.464844 240.675781 123.121094 243.011719 120.695312 " fill-opacity="1" fill-rule="nonzero"/><g clip-path="url(#482adfb6de)"><path fill="#ce882b" d="M 276.296875 157.816406 C 275.882812 157.816406 275.472656 157.96875 275.082031 158.269531 C 274.25 158.921875 274.253906 162.019531 275.839844 164.613281 C 276.523438 165.730469 277.773438 167.175781 279.804688 167.601562 C 280.007812 166.457031 280.082031 165.507812 280.039062 164.820312 C 279.777344 160.652344 278.273438 158.535156 277.066406 157.988281 C 276.808594 157.875 276.554688 157.816406 276.296875 157.816406 Z M 228.800781 155.9375 C 225.269531 155.9375 222.410156 156.878906 220.269531 157.984375 C 213.824219 161.316406 210.261719 167.949219 209.589844 173.050781 C 208.820312 178.882812 210.917969 185.128906 215.195312 189.753906 C 219.410156 194.308594 227.699219 199.5625 243.253906 198.734375 C 247.113281 198.527344 250.742188 197.871094 254.121094 196.773438 C 255.480469 188.492188 257.023438 167.8125 240.742188 159.214844 C 236.175781 156.800781 232.179688 155.9375 228.800781 155.9375 Z M 177.535156 257.984375 C 133.3125 257.984375 97.335938 222.007812 97.335938 177.785156 C 97.335938 133.5625 133.3125 97.585938 177.535156 97.585938 C 200.070312 97.585938 221.699219 107.152344 236.875 123.832031 C 236.898438 123.859375 237.089844 124.089844 237.089844 124.089844 L 236.363281 124.742188 C 236.363281 124.742188 236.160156 124.53125 236.136719 124.503906 C 221.148438 108.03125 199.789062 98.585938 177.535156 98.585938 C 133.863281 98.585938 98.332031 134.113281 98.332031 177.785156 C 98.332031 221.457031 133.863281 256.988281 177.535156 256.988281 C 212.398438 256.988281 242.761719 234.679688 253.085938 201.480469 L 253.425781 200.25 C 253.476562 200.0625 253.6875 199.203125 253.933594 197.847656 C 250.589844 198.898438 247.035156 199.53125 243.304688 199.730469 C 227.359375 200.582031 218.820312 195.144531 214.464844 190.433594 C 209.984375 185.589844 207.792969 179.042969 208.601562 172.917969 C 209.460938 166.382812 213.863281 160.171875 219.8125 157.097656 C 224.207031 154.828125 231.488281 153.199219 241.207031 158.332031 C 249.148438 162.523438 253.933594 169.972656 255.425781 180.46875 C 256.320312 186.773438 255.800781 192.617188 255.207031 196.40625 C 261.042969 194.3125 266.125 190.859375 270.386719 186.070312 C 275.765625 180.03125 278.59375 173.125 279.605469 168.578125 C 277.105469 168.054688 275.644531 166.207031 274.988281 165.132812 C 273.273438 162.328125 273.019531 158.609375 274.46875 157.484375 C 275.390625 156.765625 276.460938 156.621094 277.476562 157.078125 C 279.460938 157.972656 280.792969 160.84375 281.035156 164.757812 C 281.082031 165.488281 281.003906 166.5 280.785156 167.71875 C 281.910156 167.757812 283.246094 167.5 284.808594 166.769531 C 290.480469 164.121094 292.769531 159.113281 293.628906 156.363281 C 294.804688 152.605469 294.722656 148.578125 293.421875 146.347656 C 293.28125 146.113281 293.363281 145.804688 293.601562 145.664062 C 293.839844 145.527344 294.144531 145.609375 294.285156 145.847656 C 295.742188 148.34375 295.859375 152.585938 294.585938 156.664062 C 293.675781 159.570312 291.25 164.867188 285.230469 167.675781 C 283.429688 168.515625 281.886719 168.789062 280.585938 168.710938 C 279.539062 173.429688 276.640625 180.550781 271.132812 186.734375 C 266.699219 191.710938 261.246094 195.335938 255.027344 197.488281 C 254.761719 198.980469 254.511719 200.035156 254.390625 200.507812 L 254.046875 201.761719 C 249 217.988281 239.121094 231.9375 225.476562 242.125 C 211.574219 252.5 194.996094 257.984375 177.535156 257.984375 " fill-opacity="1" fill-rule="nonzero"/></g><g fill="#000000" fill-opacity="1"><g transform="translate(124.21821, 211.528089)"><g><path d="M -10.0625 -1.96875 C -10.09375 -2.050781 -10.144531 -2.109375 -10.21875 -2.140625 C -10.289062 -2.171875 -10.359375 -2.1875 -10.421875 -2.1875 C -10.492188 -2.1875 -10.566406 -2.175781 -10.640625 -2.15625 C -10.710938 -2.144531 -10.765625 -2.132812 -10.796875 -2.125 L -10.84375 -2.234375 L -8.703125 -3.28125 L -8.65625 -3.15625 L -8.765625 -3.109375 C -9.328125 -2.828125 -9.679688 -2.441406 -9.828125 -1.953125 C -9.984375 -1.472656 -9.863281 -0.832031 -9.46875 -0.03125 C -9.25 0.425781 -8.9375 0.75 -8.53125 0.9375 C -8.132812 1.132812 -7.695312 1.234375 -7.21875 1.234375 C -6.75 1.234375 -6.269531 1.164062 -5.78125 1.03125 C -5.300781 0.894531 -4.863281 0.734375 -4.46875 0.546875 C -4.257812 0.441406 -4.019531 0.304688 -3.75 0.140625 C -3.488281 -0.0234375 -3.234375 -0.207031 -2.984375 -0.40625 C -2.734375 -0.613281 -2.503906 -0.84375 -2.296875 -1.09375 C -2.085938 -1.351562 -1.921875 -1.628906 -1.796875 -1.921875 C -1.679688 -2.210938 -1.628906 -2.523438 -1.640625 -2.859375 C -1.648438 -3.191406 -1.742188 -3.539062 -1.921875 -3.90625 C -2.078125 -4.226562 -2.265625 -4.492188 -2.484375 -4.703125 C -2.703125 -4.910156 -2.941406 -5.070312 -3.203125 -5.1875 C -3.472656 -5.300781 -3.757812 -5.382812 -4.0625 -5.4375 C -4.375 -5.488281 -4.703125 -5.515625 -5.046875 -5.515625 L -5.078125 -5.671875 C -4.710938 -5.671875 -4.375 -5.644531 -4.0625 -5.59375 C -3.757812 -5.550781 -3.46875 -5.46875 -3.1875 -5.34375 C -2.90625 -5.226562 -2.644531 -5.0625 -2.40625 -4.84375 C -2.175781 -4.632812 -1.972656 -4.34375 -1.796875 -3.96875 C -1.472656 -3.3125 -1.328125 -2.695312 -1.359375 -2.125 C -1.398438 -1.550781 -1.550781 -1.03125 -1.8125 -0.5625 C -2.070312 -0.09375 -2.40625 0.304688 -2.8125 0.640625 C -3.21875 0.984375 -3.617188 1.253906 -4.015625 1.453125 C -4.429688 1.648438 -4.898438 1.800781 -5.421875 1.90625 C -5.941406 2.007812 -6.460938 2.023438 -6.984375 1.953125 C -7.503906 1.878906 -7.992188 1.691406 -8.453125 1.390625 C -8.921875 1.097656 -9.300781 0.644531 -9.59375 0.03125 C -9.726562 -0.238281 -9.828125 -0.46875 -9.890625 -0.65625 C -9.953125 -0.851562 -9.992188 -1.023438 -10.015625 -1.171875 C -10.035156 -1.328125 -10.046875 -1.46875 -10.046875 -1.59375 C -10.054688 -1.71875 -10.0625 -1.84375 -10.0625 -1.96875 Z M -10.0625 -1.96875 "/></g></g></g><g fill="#000000" fill-opacity="1"><g transform="translate(119.089111, 199.847173)"><g><path d="M -2.359375 -7.4375 C -2.222656 -7.382812 -2.082031 -7.273438 -1.9375 -7.109375 C -1.789062 -6.953125 -1.679688 -6.75 -1.609375 -6.5 C -1.535156 -6.207031 -1.523438 -5.925781 -1.578125 -5.65625 C -1.640625 -5.382812 -1.75 -5.125 -1.90625 -4.875 C -2.0625 -4.632812 -2.238281 -4.421875 -2.4375 -4.234375 C -2.632812 -4.046875 -2.84375 -3.878906 -3.0625 -3.734375 C -3.226562 -3.628906 -3.410156 -3.515625 -3.609375 -3.390625 C -3.804688 -3.273438 -4 -3.144531 -4.1875 -3 C -4.382812 -2.863281 -4.566406 -2.710938 -4.734375 -2.546875 C -4.910156 -2.378906 -5.046875 -2.203125 -5.140625 -2.015625 C -5.171875 -1.960938 -5.203125 -1.878906 -5.234375 -1.765625 C -5.265625 -1.660156 -5.257812 -1.546875 -5.21875 -1.421875 L -5.09375 -0.953125 L -0.71875 -2.140625 L -0.96875 -3.046875 L -0.828125 -3.078125 L -0.09375 -0.34375 L -0.234375 -0.3125 L -0.484375 -1.21875 L -8.421875 0.921875 L -8.171875 1.828125 L -8.296875 1.859375 L -9.15625 -1.328125 C -9.25 -1.703125 -9.273438 -2.035156 -9.234375 -2.328125 C -9.191406 -2.617188 -9.097656 -2.867188 -8.953125 -3.078125 C -8.816406 -3.296875 -8.644531 -3.46875 -8.4375 -3.59375 C -8.226562 -3.726562 -8.015625 -3.828125 -7.796875 -3.890625 C -7.617188 -3.929688 -7.414062 -3.945312 -7.1875 -3.9375 C -6.96875 -3.9375 -6.742188 -3.875 -6.515625 -3.75 C -6.296875 -3.632812 -6.085938 -3.457031 -5.890625 -3.21875 C -5.703125 -2.988281 -5.554688 -2.671875 -5.453125 -2.265625 L -5.40625 -2.078125 C -5.363281 -2.273438 -5.320312 -2.46875 -5.28125 -2.65625 C -5.238281 -2.84375 -5.160156 -3.03125 -5.046875 -3.21875 C -4.941406 -3.40625 -4.800781 -3.59375 -4.625 -3.78125 C -4.445312 -3.976562 -4.210938 -4.175781 -3.921875 -4.375 C -3.578125 -4.613281 -3.257812 -4.820312 -2.96875 -5 C -2.6875 -5.175781 -2.445312 -5.351562 -2.25 -5.53125 C -2.050781 -5.707031 -1.910156 -5.882812 -1.828125 -6.0625 C -1.742188 -6.25 -1.734375 -6.460938 -1.796875 -6.703125 C -1.835938 -6.828125 -1.910156 -6.953125 -2.015625 -7.078125 C -2.128906 -7.210938 -2.257812 -7.3125 -2.40625 -7.375 Z M -7.546875 -2.984375 C -7.742188 -2.929688 -7.941406 -2.84375 -8.140625 -2.71875 C -8.335938 -2.601562 -8.5 -2.453125 -8.625 -2.265625 C -8.757812 -2.078125 -8.851562 -1.859375 -8.90625 -1.609375 C -8.96875 -1.359375 -8.957031 -1.082031 -8.875 -0.78125 L -8.65625 0 L -5.21875 -0.921875 L -5.46875 -1.828125 C -5.539062 -2.117188 -5.660156 -2.347656 -5.828125 -2.515625 C -6.003906 -2.691406 -6.191406 -2.820312 -6.390625 -2.90625 C -6.597656 -3 -6.800781 -3.046875 -7 -3.046875 C -7.195312 -3.046875 -7.378906 -3.023438 -7.546875 -2.984375 Z M -7.546875 -2.984375 "/></g></g></g><g fill="#000000" fill-opacity="1"><g transform="translate(116.347097, 187.62657)"><g><path d="M -0.296875 -4.296875 L -0.4375 -4.28125 L -0.515625 -5.234375 L -3.921875 -3.875 L -3.765625 -1.765625 L -0.203125 -0.859375 L -0.265625 -1.8125 L -0.125 -1.828125 L 0 0.0625 L -0.140625 0.078125 L -0.1875 -0.6875 L -9.015625 -2.859375 L -0.578125 -6.203125 L -0.640625 -7.109375 L -0.5 -7.125 Z M -7.15625 -2.59375 L -3.90625 -1.796875 L -4.046875 -3.8125 Z M -7.15625 -2.59375 "/></g></g></g><g fill="#000000" fill-opacity="1"><g transform="translate(116.013959, 175.099978)"><g><path d="M -5.921875 -6.375 L -6.046875 -6.390625 C -6.546875 -6.453125 -6.945312 -6.425781 -7.25 -6.3125 C -7.5625 -6.207031 -7.738281 -5.960938 -7.78125 -5.578125 L -8.0625 -3.171875 L -4.4375 -2.765625 L -4.359375 -3.4375 C -4.335938 -3.601562 -4.375 -3.738281 -4.46875 -3.84375 C -4.570312 -3.957031 -4.691406 -4.023438 -4.828125 -4.046875 L -5.484375 -4.109375 L -5.46875 -4.25 L -2.859375 -3.96875 L -2.875 -3.828125 L -3.609375 -3.90625 C -3.765625 -3.925781 -3.898438 -3.890625 -4.015625 -3.796875 C -4.128906 -3.710938 -4.195312 -3.570312 -4.21875 -3.375 L -4.296875 -2.75 L 0.109375 -2.25 L 0.21875 -3.1875 L 0.359375 -3.171875 L 0.046875 -0.359375 L -0.09375 -0.375 L 0 -1.296875 L -8.171875 -2.21875 L -8.265625 -1.296875 L -8.40625 -1.3125 L -7.875 -6.078125 C -7.863281 -6.179688 -7.875 -6.265625 -7.90625 -6.328125 C -7.9375 -6.398438 -7.972656 -6.457031 -8.015625 -6.5 C -8.066406 -6.550781 -8.113281 -6.585938 -8.15625 -6.609375 C -8.207031 -6.628906 -8.25 -6.644531 -8.28125 -6.65625 L -8.28125 -6.75 L -5.921875 -6.484375 Z M -5.921875 -6.375 "/></g></g></g><g fill="#000000" fill-opacity="1"><g transform="translate(117.759108, 163.871689)"><g><path d="M -4.734375 -7.296875 L -4.84375 -7.34375 C -5.320312 -7.476562 -5.71875 -7.53125 -6.03125 -7.5 C -6.351562 -7.46875 -6.5625 -7.285156 -6.65625 -6.953125 L -7.046875 -5.640625 L 0.828125 -3.328125 L 1.09375 -4.234375 L 1.234375 -4.1875 L 0.4375 -1.46875 L 0.296875 -1.515625 L 0.5625 -2.4375 L -7.3125 -4.75 L -7.703125 -3.421875 C -7.796875 -3.085938 -7.71875 -2.820312 -7.46875 -2.625 C -7.226562 -2.425781 -6.867188 -2.257812 -6.390625 -2.125 L -6.28125 -2.078125 L -6.3125 -1.984375 L -8.484375 -2.625 L -8.453125 -2.703125 C -8.367188 -2.703125 -8.273438 -2.722656 -8.171875 -2.765625 C -8.078125 -2.804688 -8 -2.925781 -7.9375 -3.125 L -6.703125 -7.359375 C -6.640625 -7.554688 -6.640625 -7.691406 -6.703125 -7.765625 C -6.773438 -7.847656 -6.84375 -7.910156 -6.90625 -7.953125 L -6.875 -8.046875 L -4.703125 -7.40625 Z M -4.734375 -7.296875 "/></g></g></g><g fill="#000000" fill-opacity="1"><g transform="translate(121.469777, 153.115398)"><g><path d="M 0.15625 -0.328125 L 0.03125 -0.390625 L 0.4375 -1.234375 L -6.984375 -4.75 L -7.390625 -3.90625 L -7.53125 -3.96875 L -6.328125 -6.515625 L -6.1875 -6.453125 L -6.578125 -5.609375 L 0.84375 -2.09375 L 1.234375 -2.9375 L 1.359375 -2.875 Z M 0.15625 -0.328125 "/></g></g></g><g fill="#000000" fill-opacity="1"><g transform="translate(125.581074, 145.091294)"><g><path d="M -2.875 -10.421875 L 3.953125 -5.59375 L 3.890625 -5.515625 L -5.328125 -5.390625 L 0.65625 -1.15625 L 1.109375 -1.8125 L 1.21875 -1.734375 L 0.140625 -0.1875 L 0.03125 -0.265625 L 0.578125 -1.046875 L -6.140625 -5.796875 L -6.6875 -5.015625 L -6.796875 -5.09375 L -5.9375 -6.328125 L 2.515625 -6.4375 L -2.953125 -10.296875 L -3.421875 -9.65625 L -3.53125 -9.734375 L -2.4375 -11.28125 L -2.328125 -11.203125 Z M -2.875 -10.421875 "/></g></g></g><g fill="#000000" fill-opacity="1"><g transform="translate(133.801646, 134.439072)"><g><path d="M -2.796875 -9.015625 C -3.148438 -8.691406 -3.351562 -8.316406 -3.40625 -7.890625 C -3.457031 -7.460938 -3.410156 -7.019531 -3.265625 -6.5625 C -3.128906 -6.113281 -2.925781 -5.671875 -2.65625 -5.234375 C -2.394531 -4.804688 -2.117188 -4.4375 -1.828125 -4.125 C -1.566406 -3.84375 -1.238281 -3.546875 -0.84375 -3.234375 C -0.445312 -2.929688 -0.03125 -2.6875 0.40625 -2.5 C 0.851562 -2.320312 1.304688 -2.242188 1.765625 -2.265625 C 2.222656 -2.285156 2.648438 -2.476562 3.046875 -2.84375 C 3.398438 -3.175781 3.625 -3.523438 3.71875 -3.890625 C 3.8125 -4.253906 3.695312 -4.613281 3.375 -4.96875 L 1.96875 -6.46875 L 1.09375 -5.65625 L 1 -5.75 L 3.078125 -7.703125 L 3.171875 -7.609375 L 2.65625 -7.109375 L 4.40625 -5.25 C 4.363281 -5.019531 4.296875 -4.757812 4.203125 -4.46875 C 4.109375 -4.1875 3.953125 -3.875 3.734375 -3.53125 C 3.628906 -3.34375 3.539062 -3.195312 3.46875 -3.09375 C 3.40625 -3 3.296875 -2.878906 3.140625 -2.734375 C 2.660156 -2.285156 2.15625 -2.007812 1.625 -1.90625 C 1.09375 -1.800781 0.570312 -1.800781 0.0625 -1.90625 C -0.445312 -2.007812 -0.929688 -2.203125 -1.390625 -2.484375 C -1.847656 -2.765625 -2.238281 -3.078125 -2.5625 -3.421875 C -2.90625 -3.785156 -3.195312 -4.207031 -3.4375 -4.6875 C -3.6875 -5.175781 -3.84375 -5.679688 -3.90625 -6.203125 C -3.976562 -6.734375 -3.9375 -7.25 -3.78125 -7.75 C -3.625 -8.257812 -3.3125 -8.734375 -2.84375 -9.171875 C -2.625 -9.378906 -2.429688 -9.539062 -2.265625 -9.65625 C -2.097656 -9.769531 -1.941406 -9.859375 -1.796875 -9.921875 C -1.660156 -9.984375 -1.535156 -10.03125 -1.421875 -10.0625 C -1.316406 -10.101562 -1.195312 -10.140625 -1.0625 -10.171875 C -1 -10.234375 -0.957031 -10.300781 -0.9375 -10.375 C -0.925781 -10.457031 -0.929688 -10.535156 -0.953125 -10.609375 C -0.972656 -10.679688 -1 -10.75 -1.03125 -10.8125 C -1.0625 -10.875 -1.085938 -10.914062 -1.109375 -10.9375 L -1.03125 -11.015625 L 0.578125 -9.28125 L 0.5 -9.203125 L 0.421875 -9.296875 C -0.00390625 -9.753906 -0.476562 -9.976562 -1 -9.96875 C -1.53125 -9.957031 -2.128906 -9.640625 -2.796875 -9.015625 Z M -2.796875 -9.015625 "/></g></g></g><g fill="#000000" fill-opacity="1"><g transform="translate(143.869229, 125.903361)"><g/></g></g><g fill="#000000" fill-opacity="1"><g transform="translate(151.515894, 121.138344)"><g><path d="M 5.09375 -11.1875 L 6.015625 -2.390625 L 5.859375 -2.328125 L 2.84375 -5.96875 L 3.328125 -1.265625 L 3.1875 -1.203125 L -2.453125 -8.03125 L -3.296875 -7.671875 L -3.34375 -7.8125 L 3.09375 -10.515625 L 3.140625 -10.375 L 2.421875 -10.0625 L 2.6875 -7.625 L 5.6875 -3.96875 L 4.953125 -11.125 L 4.078125 -10.765625 L 4.03125 -10.90625 L 5.75 -11.625 L 5.796875 -11.484375 Z M 1.125 -9.53125 L 2.5 -7.84375 L 2.28125 -10.015625 Z M 0.21875 -9.15625 L -1.5625 -8.40625 L 3.03125 -2.84375 L 2.6875 -6.1875 Z M 0.21875 -9.15625 "/></g></g></g><g fill="#000000" fill-opacity="1"><g transform="translate(165.745781, 115.943255)"><g><path d="M 6.140625 -5.453125 C 6.222656 -4.972656 6.238281 -4.460938 6.1875 -3.921875 C 6.132812 -3.378906 6.007812 -2.875 5.8125 -2.40625 C 5.613281 -1.9375 5.335938 -1.53125 4.984375 -1.1875 C 4.628906 -0.84375 4.191406 -0.625 3.671875 -0.53125 C 3.140625 -0.4375 2.644531 -0.488281 2.1875 -0.6875 C 1.726562 -0.882812 1.316406 -1.171875 0.953125 -1.546875 C 0.597656 -1.921875 0.300781 -2.347656 0.0625 -2.828125 C -0.164062 -3.304688 -0.320312 -3.773438 -0.40625 -4.234375 C -0.5 -4.722656 -0.519531 -5.234375 -0.46875 -5.765625 C -0.425781 -6.304688 -0.300781 -6.8125 -0.09375 -7.28125 C 0.113281 -7.75 0.398438 -8.15625 0.765625 -8.5 C 1.128906 -8.851562 1.566406 -9.078125 2.078125 -9.171875 C 2.597656 -9.265625 3.082031 -9.222656 3.53125 -9.046875 C 3.988281 -8.867188 4.390625 -8.597656 4.734375 -8.234375 C 5.085938 -7.867188 5.382812 -7.441406 5.625 -6.953125 C 5.875 -6.472656 6.046875 -5.972656 6.140625 -5.453125 Z M 5.140625 -5.265625 C 5.066406 -5.660156 4.953125 -6.09375 4.796875 -6.5625 C 4.648438 -7.03125 4.453125 -7.460938 4.203125 -7.859375 C 3.953125 -8.265625 3.65625 -8.582031 3.3125 -8.8125 C 2.96875 -9.039062 2.5625 -9.113281 2.09375 -9.03125 C 1.789062 -8.976562 1.535156 -8.851562 1.328125 -8.65625 C 1.117188 -8.46875 0.953125 -8.242188 0.828125 -7.984375 C 0.703125 -7.722656 0.609375 -7.4375 0.546875 -7.125 C 0.484375 -6.8125 0.445312 -6.492188 0.4375 -6.171875 C 0.425781 -5.847656 0.4375 -5.535156 0.46875 -5.234375 C 0.5 -4.929688 0.539062 -4.660156 0.59375 -4.421875 C 0.65625 -4.046875 0.757812 -3.625 0.90625 -3.15625 C 1.0625 -2.6875 1.265625 -2.25 1.515625 -1.84375 C 1.773438 -1.445312 2.078125 -1.128906 2.421875 -0.890625 C 2.773438 -0.660156 3.179688 -0.585938 3.640625 -0.671875 C 4.085938 -0.753906 4.429688 -0.960938 4.671875 -1.296875 C 4.921875 -1.640625 5.09375 -2.039062 5.1875 -2.5 C 5.28125 -2.957031 5.3125 -3.429688 5.28125 -3.921875 C 5.257812 -4.421875 5.210938 -4.867188 5.140625 -5.265625 Z M 5.140625 -5.265625 "/></g></g></g><g fill="#000000" fill-opacity="1"><g transform="translate(178.42404, 114.150591)"><g><path d="M 7.796875 -0.265625 C 7.710938 -0.140625 7.570312 -0.03125 7.375 0.0625 C 7.1875 0.15625 6.960938 0.203125 6.703125 0.203125 C 6.398438 0.191406 6.125 0.125 5.875 0 C 5.625 -0.132812 5.40625 -0.304688 5.21875 -0.515625 C 5.03125 -0.722656 4.867188 -0.953125 4.734375 -1.203125 C 4.609375 -1.453125 4.503906 -1.695312 4.421875 -1.9375 C 4.367188 -2.125 4.3125 -2.328125 4.25 -2.546875 C 4.1875 -2.773438 4.113281 -3 4.03125 -3.21875 C 3.945312 -3.445312 3.847656 -3.664062 3.734375 -3.875 C 3.617188 -4.082031 3.484375 -4.265625 3.328125 -4.421875 C 3.285156 -4.460938 3.210938 -4.507812 3.109375 -4.5625 C 3.015625 -4.613281 2.90625 -4.640625 2.78125 -4.640625 L 2.296875 -4.640625 L 2.25 -0.109375 L 3.1875 -0.109375 L 3.1875 0.03125 L 0.359375 0 L 0.359375 -0.140625 L 1.296875 -0.125 L 1.390625 -8.34375 L 0.453125 -8.359375 L 0.453125 -8.5 L 3.75 -8.453125 C 4.132812 -8.453125 4.460938 -8.390625 4.734375 -8.265625 C 5.003906 -8.140625 5.222656 -7.984375 5.390625 -7.796875 C 5.554688 -7.609375 5.675781 -7.394531 5.75 -7.15625 C 5.820312 -6.914062 5.859375 -6.679688 5.859375 -6.453125 C 5.847656 -6.273438 5.804688 -6.078125 5.734375 -5.859375 C 5.671875 -5.640625 5.550781 -5.4375 5.375 -5.25 C 5.207031 -5.070312 4.984375 -4.921875 4.703125 -4.796875 C 4.421875 -4.679688 4.070312 -4.625 3.65625 -4.625 L 3.453125 -4.640625 C 3.628906 -4.546875 3.800781 -4.453125 3.96875 -4.359375 C 4.144531 -4.265625 4.304688 -4.140625 4.453125 -3.984375 C 4.609375 -3.835938 4.753906 -3.648438 4.890625 -3.421875 C 5.023438 -3.203125 5.148438 -2.925781 5.265625 -2.59375 C 5.398438 -2.195312 5.515625 -1.835938 5.609375 -1.515625 C 5.710938 -1.191406 5.816406 -0.910156 5.921875 -0.671875 C 6.035156 -0.441406 6.171875 -0.257812 6.328125 -0.125 C 6.484375 0.0078125 6.6875 0.078125 6.9375 0.078125 C 7.070312 0.078125 7.21875 0.0390625 7.375 -0.03125 C 7.53125 -0.101562 7.65625 -0.195312 7.75 -0.3125 Z M 4.921875 -6.46875 C 4.921875 -6.675781 4.882812 -6.890625 4.8125 -7.109375 C 4.75 -7.328125 4.644531 -7.523438 4.5 -7.703125 C 4.363281 -7.878906 4.179688 -8.023438 3.953125 -8.140625 C 3.734375 -8.253906 3.46875 -8.316406 3.15625 -8.328125 L 2.34375 -8.328125 L 2.296875 -4.78125 L 3.234375 -4.78125 C 3.535156 -4.769531 3.789062 -4.820312 4 -4.9375 C 4.21875 -5.050781 4.394531 -5.191406 4.53125 -5.359375 C 4.664062 -5.535156 4.765625 -5.722656 4.828125 -5.921875 C 4.890625 -6.117188 4.921875 -6.300781 4.921875 -6.46875 Z M 4.921875 -6.46875 "/></g></g></g><g fill="#000000" fill-opacity="1"><g transform="translate(190.935461, 114.842232)"><g><path d="M 5.625 1.59375 C 5.625 1.5625 5.617188 1.519531 5.609375 1.46875 C 5.609375 1.414062 5.59375 1.359375 5.5625 1.296875 C 5.53125 1.234375 5.484375 1.175781 5.421875 1.125 C 5.367188 1.082031 5.296875 1.050781 5.203125 1.03125 L 0.359375 0.0625 L 0.390625 -0.078125 L 1.296875 0.109375 L 2.890625 -7.953125 L 1.984375 -8.140625 L 2.015625 -8.28125 L 4.78125 -7.71875 L 4.75 -7.578125 L 3.828125 -7.765625 L 2.234375 0.296875 L 4.75 0.796875 C 4.957031 0.835938 5.128906 0.828125 5.265625 0.765625 C 5.410156 0.710938 5.53125 0.625 5.625 0.5 C 5.726562 0.382812 5.8125 0.226562 5.875 0.03125 C 5.9375 -0.15625 5.992188 -0.367188 6.046875 -0.609375 L 6.0625 -0.734375 L 6.1875 -0.703125 L 5.734375 1.625 Z M 5.625 1.59375 "/></g></g></g><g fill="#000000" fill-opacity="1"><g transform="translate(202.118413, 117.498322)"><g><path d="M 2.40625 0.828125 C 3.007812 1.066406 3.566406 1.1875 4.078125 1.1875 C 4.585938 1.1875 5.050781 1.082031 5.46875 0.875 C 5.894531 0.664062 6.273438 0.359375 6.609375 -0.046875 C 6.941406 -0.460938 7.222656 -0.957031 7.453125 -1.53125 C 7.710938 -2.175781 7.875 -2.757812 7.9375 -3.28125 C 8.007812 -3.8125 7.960938 -4.296875 7.796875 -4.734375 C 7.628906 -5.179688 7.332031 -5.582031 6.90625 -5.9375 C 6.488281 -6.289062 5.925781 -6.613281 5.21875 -6.90625 L 2.140625 0.71875 Z M 0.328125 0.140625 L 0.375 0.015625 L 1.25 0.359375 L 4.328125 -7.265625 L 3.453125 -7.609375 L 3.515625 -7.734375 L 5.375 -6.984375 C 6.164062 -6.671875 6.804688 -6.296875 7.296875 -5.859375 C 7.796875 -5.421875 8.164062 -4.945312 8.40625 -4.4375 C 8.65625 -3.9375 8.773438 -3.414062 8.765625 -2.875 C 8.765625 -2.332031 8.65625 -1.789062 8.4375 -1.25 C 8.226562 -0.71875 7.929688 -0.25 7.546875 0.15625 C 7.160156 0.570312 6.710938 0.890625 6.203125 1.109375 C 5.691406 1.328125 5.109375 1.429688 4.453125 1.421875 C 3.804688 1.410156 3.101562 1.253906 2.34375 0.953125 Z M 0.328125 0.140625 "/></g></g></g></svg>